<svg width="63" height="25" viewBox="0 0 63 25" fill="none" xmlns="http://www.w3.org/2000/svg">
<g clip-path="url(#clip0_74_26)">
<path d="M1.70205 12.5037C1.70205 11.7357 1.84605 11.0103 2.13405 10.3277C2.43272 9.645 2.83272 9.053 3.33405 8.55167C3.84605 8.03967 4.44339 7.63967 5.12605 7.35167C5.80872 7.053 6.53405 6.90367 7.30205 6.90367C8.08072 6.90367 8.80606 7.04767 9.47806 7.33567V9.57567C9.24339 9.373 8.97672 9.213 8.67805 9.09567C8.39006 8.97833 8.05939 8.91967 7.68606 8.91967C7.20606 8.91967 6.75272 9.01567 6.32606 9.20767C5.91006 9.39967 5.54205 9.661 5.22205 9.99167C4.90205 10.3117 4.65139 10.6903 4.47005 11.1277C4.28872 11.565 4.19805 12.0237 4.19805 12.5037C4.19805 12.8983 4.26205 13.2823 4.39005 13.6557C4.52872 14.0183 4.71005 14.349 4.93405 14.6477C5.16872 14.9357 5.44606 15.1863 5.76606 15.3997C6.08606 15.613 6.43272 15.7677 6.80606 15.8637C6.84872 15.8743 6.90205 15.885 6.96605 15.8957C7.04072 15.9063 7.11539 15.917 7.19005 15.9277C7.26472 15.9383 7.33939 15.949 7.41405 15.9597C7.48872 15.9597 7.54739 15.965 7.59005 15.9757V12.2957H10.0701V18.1037H7.06206C6.31539 18.0717 5.61672 17.9063 4.96605 17.6077C4.31539 17.2983 3.74472 16.893 3.25405 16.3917C2.77405 15.8797 2.39539 15.293 2.11805 14.6317C1.84072 13.9597 1.70205 13.2503 1.70205 12.5037Z" fill="url(#paint0_linear_74_26)"/>
<path d="M55.3539 8.77567V11.6237H56.6499C57.1513 11.6237 57.5513 11.5117 57.8499 11.2877C58.1593 11.0637 58.3139 10.701 58.3139 10.1997C58.3139 9.69834 58.1593 9.33567 57.8499 9.11167C57.5513 8.88767 57.1513 8.77567 56.6499 8.77567H55.3539ZM60.7939 10.3757C60.7939 10.8557 60.7246 11.2663 60.5859 11.6077C60.4473 11.949 60.2713 12.237 60.0579 12.4717C59.8446 12.6957 59.6046 12.877 59.3379 13.0157C59.0819 13.1543 58.8366 13.261 58.6019 13.3357C58.3673 13.4103 58.1593 13.4583 57.9779 13.4797C57.7966 13.501 57.6739 13.5117 57.6099 13.5117H55.3539V18.1037H52.8739V6.90367H57.6099C58.0793 6.90367 58.5059 6.989 58.8899 7.15967C59.2846 7.33034 59.6206 7.57034 59.8979 7.87967C60.1859 8.189 60.4046 8.557 60.5539 8.98367C60.7139 9.39967 60.7939 9.86367 60.7939 10.3757Z" fill="url(#paint1_linear_74_26)"/>
<path d="M45.4052 6.90367H51.8692V8.77567H47.8852V10.9837H51.3892V12.8557H47.8852V16.2157H51.8692V18.1037H45.4052V6.90367Z" fill="url(#paint2_linear_74_26)"/>
<path d="M38.9633 8.77567V11.6237H40.2593C40.7606 11.6237 41.1606 11.5117 41.4593 11.2877C41.7686 11.0637 41.9233 10.701 41.9233 10.1997C41.9233 9.69834 41.7686 9.33567 41.4593 9.11167C41.1606 8.88767 40.7606 8.77567 40.2593 8.77567H38.9633ZM44.4033 10.3757C44.4033 10.909 44.318 11.3623 44.1473 11.7357C43.9766 12.109 43.758 12.4183 43.4913 12.6637C43.2353 12.8983 42.9526 13.0797 42.6433 13.2077C42.334 13.325 42.0353 13.3997 41.7473 13.4317C41.6726 13.4423 41.5713 13.453 41.4433 13.4637C41.326 13.4637 41.2353 13.469 41.1713 13.4797L44.4033 18.1037H42.1633L38.9633 13.5117V18.1037H36.4833V6.90367H41.2193C41.6886 6.90367 42.1153 6.989 42.4993 7.15967C42.894 7.33034 43.23 7.57034 43.5073 7.87967C43.7953 8.189 44.014 8.557 44.1633 8.98367C44.3233 9.39967 44.4033 9.86367 44.4033 10.3757Z" fill="url(#paint3_linear_74_26)"/>
<path d="M30.1821 8.77567V11.6237H31.4781C31.9794 11.6237 32.3794 11.5117 32.6781 11.2877C32.9874 11.0637 33.1421 10.701 33.1421 10.1997C33.1421 9.69834 32.9874 9.33567 32.6781 9.11167C32.3794 8.88767 31.9794 8.77567 31.4781 8.77567H30.1821ZM35.6221 10.3757C35.6221 10.8557 35.5527 11.2663 35.4141 11.6077C35.2754 11.949 35.0994 12.237 34.8861 12.4717C34.6727 12.6957 34.4327 12.877 34.1661 13.0157C33.9101 13.1543 33.6647 13.261 33.4301 13.3357C33.1954 13.4103 32.9874 13.4583 32.8061 13.4797C32.6247 13.501 32.5021 13.5117 32.4381 13.5117H30.1821V18.1037H27.7021V10.1997L32.4381 6.90367C32.9074 6.90367 33.3341 6.989 33.7181 7.15967C34.1127 7.33034 34.4487 7.57034 34.7261 7.87967C35.0141 8.189 35.2327 8.557 35.3821 8.98367C35.5421 9.39967 35.6221 9.86367 35.6221 10.3757Z" fill="url(#paint4_linear_74_26)"/>
<path d="M19.7061 12.1037L23.7061 16.6037C23.7061 16.6037 24.6299 13.1142 26.2061 11.6037C27.3426 10.5144 28.354 11.2145 29.7061 9.60367C31.0581 7.99288 32.7061 5.10367 33.2061 2.60367" stroke="url(#paint5_linear_74_26)" stroke-width="2" stroke-linecap="round"/>
<path d="M10.7021 12.5037C10.7021 11.7357 10.8461 11.0103 11.1341 10.3277C11.4327 9.645 11.8327 9.053 12.3341 8.55167C12.8461 8.03967 13.4434 7.63967 14.1261 7.35167C14.8087 7.053 15.5341 6.90367 16.3021 6.90367C17.0701 6.90367 17.7954 7.053 18.4781 7.35167C19.1607 7.63967 19.7527 8.03967 20.2541 8.55167C20.7661 9.053 21.1661 9.645 21.4541 10.3277C21.7527 11.0103 21.9021 11.7357 21.9021 12.5037C21.9021 13.2717 21.7527 13.997 21.4541 14.6797C21.1661 15.3623 20.7661 15.9597 20.2541 16.4717C19.7527 16.973 19.1607 17.373 18.4781 17.6717C17.7954 17.9597 17.0701 18.1037 16.3021 18.1037C15.5341 18.1037 14.8087 17.9597 14.1261 17.6717C13.4434 17.373 12.8461 16.973 12.3341 16.4717C11.8327 15.9597 11.4327 15.3623 11.1341 14.6797C10.8461 13.997 10.7021 13.2717 10.7021 12.5037ZM13.1821 12.5037C13.1821 12.9303 13.2621 13.3357 13.4221 13.7197C13.5927 14.1037 13.8167 14.4343 14.0941 14.7117C14.3714 14.989 14.7021 15.213 15.0861 15.3837C15.4701 15.5437 15.8754 15.6237 16.3021 15.6237C16.7394 15.6237 17.1447 15.5437 17.5181 15.3837C17.9021 15.213 18.2327 14.989 18.5101 14.7117C18.7874 14.4343 19.0061 14.1037 19.1661 13.7197C19.3367 13.3357 19.4221 12.9303 19.4221 12.5037C19.4221 12.0663 19.3367 11.661 19.1661 11.2877C19.0061 10.9037 18.7874 10.573 18.5101 10.2957C18.2327 10.0183 17.9021 9.79967 17.5181 9.63967C17.1447 9.469 16.7394 9.38367 16.3021 9.38367C15.8754 9.38367 15.4701 9.469 15.0861 9.63967C14.7021 9.79967 14.3714 10.0183 14.0941 10.2957C13.8167 10.573 13.5927 10.9037 13.4221 11.2877C13.2621 11.661 13.1821 12.0663 13.1821 12.5037Z" fill="url(#paint6_linear_74_26)"/>
<ellipse cx="16.2061" cy="12.6037" rx="5" ry="4.5" fill="url(#paint7_linear_74_26)"/>
<path fill-rule="evenodd" clip-rule="evenodd" d="M17.2637 12.5571C17.341 12.5662 17.4187 12.5752 17.4962 12.5846C17.6811 12.6068 17.8659 12.6298 18.0511 12.6508C18.1454 12.6617 18.2396 12.6781 18.3356 12.6715C18.4957 12.66 18.6562 12.6528 18.816 12.6435C19.0398 12.6304 19.2633 12.6168 19.4871 12.6037C19.6673 12.5936 19.8479 12.5844 20.0281 12.5743C20.3253 12.5574 20.6225 12.5401 20.9197 12.5232C21.0218 12.5171 21.1239 12.5108 21.226 12.5048C21.1845 12.4982 21.1429 12.4945 21.1014 12.4922C20.9729 12.485 20.8442 12.4786 20.716 12.4712C20.4866 12.4582 20.2573 12.4441 20.0278 12.4309C19.8531 12.4211 19.6789 12.4119 19.5041 12.4021C19.2586 12.3882 19.0135 12.374 18.7682 12.3599C18.6472 12.3528 18.5259 12.3444 18.4047 12.3381C18.3302 12.3344 18.2552 12.3263 18.1799 12.3375C18.0971 12.3494 18.0139 12.3586 17.9307 12.3686C17.7427 12.3912 17.5549 12.414 17.3672 12.4363C17.3249 12.4415 17.2822 12.4452 17.2388 12.4494C17.2319 12.3936 17.2261 12.3441 17.2197 12.2913C17.237 12.2881 17.2523 12.2844 17.2675 12.2821C17.3177 12.2749 17.3675 12.2683 17.4176 12.2611C17.6334 12.2301 17.8495 12.1998 18.0652 12.1677C18.1407 12.1565 18.2167 12.1493 18.2902 12.1246C18.5858 12.0254 18.8823 11.9281 19.1787 11.8304C19.7735 11.6338 20.3688 11.4375 20.964 11.2409C20.9825 11.2347 21.0011 11.2281 21.0195 11.2217C21.0189 11.2189 21.0181 11.2163 21.0173 11.2134C20.971 11.2229 20.9247 11.2323 20.8784 11.2418C20.4118 11.3387 19.9451 11.4355 19.4786 11.5324C19.094 11.6123 18.7093 11.6915 18.325 11.7722C18.2477 11.7886 18.1686 11.7981 18.0941 11.8281C17.8074 11.9438 17.5202 12.0583 17.2333 12.1731C17.2206 12.1784 17.2074 12.1826 17.193 12.1873C17.172 12.1363 17.1525 12.089 17.1323 12.0398C17.1465 12.0329 17.1579 12.0271 17.1695 12.0222C17.4551 11.9001 17.7409 11.778 18.0261 11.6556C18.0499 11.6455 18.0735 11.6337 18.095 11.6195C18.8964 11.0941 19.6973 10.5685 20.4986 10.0427C20.5114 10.0345 20.5237 10.0257 20.5366 10.0173C20.5194 10.0177 20.5055 10.024 20.4918 10.0309C19.6377 10.461 18.7834 10.891 17.9294 11.3215C17.905 11.334 17.8815 11.3487 17.8597 11.3651C17.6119 11.5504 17.3646 11.736 17.1171 11.9214C17.1047 11.9307 17.0916 11.9392 17.078 11.949C17.0441 11.9053 17.0122 11.8649 16.9789 11.8226C16.9924 11.8116 17.0031 11.8024 17.0142 11.7935C17.2585 11.6015 17.5029 11.4094 17.747 11.2171C17.766 11.2021 17.7848 11.1855 17.801 11.1673C18.1488 10.7782 18.4961 10.3886 18.8435 9.99918C19.1342 9.67326 19.4248 9.3475 19.7154 9.02158C19.7237 9.01223 19.7314 9.00241 19.7395 8.99275C19.7234 8.99643 19.7134 9.00487 19.7041 9.01346C18.9898 9.65041 18.2756 10.2874 17.5615 10.9246C17.5443 10.94 17.5285 10.957 17.5144 10.9752C17.321 11.2205 17.1283 11.4662 16.9354 11.7116C16.9257 11.724 16.9154 11.7357 16.9047 11.7487C16.8616 11.7146 16.8213 11.6826 16.7788 11.6492C16.7891 11.6346 16.798 11.6215 16.8073 11.6091C16.991 11.3637 17.175 11.1186 17.3581 10.8729C17.3796 10.8441 17.3985 10.8128 17.4147 10.7808C17.8412 9.93445 18.2675 9.08784 18.6936 8.24123C18.6999 8.2288 18.7048 8.21592 18.7107 8.20319C18.6959 8.21224 18.6872 8.22451 18.6789 8.23724C18.1574 9.03247 17.6357 9.82755 17.1143 10.6229C17.0981 10.6481 17.0833 10.6751 17.0717 10.7027C16.9499 10.9855 16.8292 11.2683 16.7081 11.5513C16.7021 11.5657 16.6951 11.5797 16.6877 11.5955C16.6379 11.5746 16.5902 11.5547 16.5402 11.534C16.5454 11.5185 16.5498 11.505 16.5551 11.4919C16.6705 11.2036 16.7863 10.9153 16.9016 10.6269C16.9101 10.6056 16.9179 10.5835 16.9226 10.5611C17.0041 10.171 17.085 9.78062 17.1661 9.39044C17.2782 8.85042 17.3906 8.31024 17.5027 7.77007C17.5072 7.74814 17.5104 7.72605 17.5144 7.70412C17.4937 7.74323 17.4799 7.78403 17.4664 7.82482C17.1979 8.63815 16.9292 9.45118 16.6612 10.2647C16.6225 10.3823 16.5802 10.4984 16.5647 10.6234C16.5357 10.857 16.4989 11.0897 16.4655 11.3226C16.4566 11.3837 16.4476 11.4447 16.4382 11.5079C16.3831 11.5011 16.3325 11.4949 16.2783 11.4883C16.2809 11.463 16.2822 11.4401 16.285 11.4174C16.2954 11.3286 16.3065 11.2396 16.3172 11.1507C16.3361 10.9944 16.3554 10.8381 16.3736 10.6818C16.3854 10.58 16.4037 10.4788 16.3937 10.3752C16.3885 10.3206 16.3871 10.2657 16.3841 10.2107C16.3675 9.91927 16.3502 9.62771 16.3336 9.3363C16.3192 9.08661 16.3049 8.83708 16.2907 8.58739C16.2761 8.33202 16.2617 8.07651 16.247 7.82114C16.241 7.71578 16.2347 7.61056 16.2284 7.5052C16.2267 7.50474 16.2252 7.50412 16.224 7.50366C16.218 7.59875 16.2119 7.69384 16.2065 7.78893C16.1991 7.91731 16.1927 8.04583 16.1855 8.1742C16.1723 8.39935 16.1588 8.6245 16.1459 8.8495C16.1384 8.97803 16.1323 9.1064 16.1249 9.23492C16.1113 9.47296 16.0975 9.71099 16.0834 9.94918C16.076 10.0759 16.0676 10.2025 16.0611 10.3294C16.0573 10.4015 16.051 10.4732 16.0607 10.5456C16.0755 10.6544 16.0878 10.7636 16.1008 10.8726C16.1202 11.0332 16.1399 11.1938 16.159 11.3545C16.164 11.3984 16.1683 11.4426 16.1731 11.4884C16.1183 11.4952 16.0686 11.5013 16.0153 11.5077C16.0119 11.4918 16.0082 11.4768 16.0058 11.4616C16.0012 11.4301 15.9973 11.3984 15.9929 11.3671C15.9622 11.1527 15.9315 10.9381 15.9003 10.7237C15.8831 10.6038 15.8647 10.4851 15.826 10.3685C15.5334 9.49013 15.2447 8.6107 14.9543 7.73157C14.9486 7.7144 14.9418 7.69752 14.934 7.67667C14.9328 7.68433 14.9316 7.68725 14.9323 7.68986C14.9989 8.01224 15.0659 8.33448 15.1331 8.65687C15.2563 9.25072 15.3793 9.84458 15.5034 10.4383C15.518 10.5073 15.5284 10.5771 15.5557 10.6436C15.6701 10.9262 15.7826 11.2093 15.8961 11.4923C15.9013 11.5053 15.9059 11.5186 15.9113 11.5341C15.8616 11.5548 15.8141 11.5745 15.7636 11.5956C15.7566 11.58 15.7497 11.5659 15.7437 11.5516C15.6228 11.2702 15.5028 10.9884 15.3818 10.7071C15.3688 10.6768 15.3531 10.647 15.335 10.6194C14.8115 9.82034 14.2873 9.02158 13.763 8.22298C13.7561 8.21255 13.7485 8.20273 13.741 8.19246C13.7428 8.21055 13.75 8.22558 13.7574 8.24046C14.1857 9.09075 14.6138 9.9412 15.0426 10.7915C15.0567 10.8197 15.0736 10.8469 15.0926 10.8723C15.2775 11.1202 15.4632 11.3676 15.6486 11.6151C15.657 11.6261 15.6643 11.6378 15.6722 11.6496C15.6285 11.684 15.5891 11.7149 15.5459 11.7487C15.5307 11.73 15.5163 11.7123 15.5023 11.6944C15.3138 11.4547 15.1254 11.2146 14.9368 10.9751C14.9217 10.9559 14.9046 10.9378 14.8866 10.9217C14.4206 10.5058 13.9547 10.0901 13.4884 9.67449C13.2435 9.45593 12.9988 9.23753 12.7537 9.01928C12.7445 9.011 12.7368 8.99842 12.716 8.99796C12.7261 9.01023 12.7327 9.01806 12.7393 9.02542C13.3725 9.73538 14.0053 10.4453 14.6391 11.1548C14.6601 11.1785 14.6833 11.2005 14.7081 11.2202C14.951 11.4117 15.1944 11.6027 15.4375 11.7939C15.4494 11.8033 15.4605 11.8134 15.4721 11.8235C15.4374 11.8672 15.4063 11.9068 15.3735 11.9484C15.3602 11.9392 15.3482 11.9317 15.3369 11.9232C15.0881 11.737 14.8395 11.5505 14.5907 11.3643C14.5723 11.3505 14.5529 11.3373 14.5325 11.3271C13.672 10.8932 12.8112 10.4598 11.9506 10.0265C11.9405 10.0213 11.9298 10.0173 11.9193 10.0128C11.9278 10.0256 11.938 10.0331 11.9488 10.0401C12.7473 10.5642 13.5462 11.0883 14.345 11.612C14.3715 11.6292 14.3996 11.6442 14.4287 11.6568C14.7117 11.7784 14.9944 11.8993 15.277 12.0203C15.2916 12.0264 15.3053 12.0333 15.3194 12.0401C15.2977 12.0912 15.2778 12.1389 15.2574 12.1879C15.2412 12.1818 15.2278 12.1769 15.2145 12.1717C14.9987 12.0852 14.7833 11.9982 14.567 11.9123C14.4303 11.8579 14.2947 11.8037 14.1484 11.7751C13.719 11.691 13.2913 11.5988 12.863 11.5099C12.4516 11.4243 12.0402 11.3386 11.6289 11.253C11.5545 11.2375 11.4801 11.2226 11.4061 11.2076C11.4225 11.2185 11.44 11.2252 11.4576 11.2311C12.3214 11.5163 13.1854 11.8018 14.0492 12.0867C14.115 12.1085 14.1805 12.1318 14.2478 12.1473C14.3125 12.1619 14.3792 12.1671 14.445 12.1764C14.6952 12.2119 14.9454 12.2476 15.1956 12.2833C15.2077 12.2852 15.2199 12.2896 15.2318 12.293C15.2251 12.3462 15.2188 12.3958 15.212 12.449C15.1926 12.4475 15.1755 12.447 15.1585 12.445C15.0752 12.4349 14.9923 12.424 14.909 12.4142C14.7199 12.391 14.5307 12.3683 14.3413 12.3459C14.2896 12.3398 14.2378 12.3294 14.1863 12.3312C14.0404 12.3361 13.8946 12.3459 13.7488 12.3545C13.4747 12.3705 13.2009 12.3866 12.9267 12.4028C12.7307 12.4145 12.5343 12.4255 12.338 12.4367C12.0567 12.4525 11.7753 12.4677 11.4939 12.4838C11.4045 12.4889 11.3154 12.4948 11.226 12.5005C11.2446 12.506 11.263 12.5068 11.2814 12.5077C11.4458 12.5169 11.6105 12.5261 11.775 12.5356C12.0058 12.5488 12.2366 12.5626 12.4674 12.5758C12.5916 12.5832 12.7157 12.5892 12.8399 12.5965C13.065 12.6096 13.29 12.6229 13.5149 12.6363C13.7069 12.6473 13.8986 12.659 14.0906 12.6691C14.1438 12.672 14.1976 12.6731 14.2507 12.6686C14.334 12.6614 14.4169 12.6485 14.5002 12.6382C14.7138 12.6125 14.9274 12.587 15.1412 12.5614C15.165 12.5586 15.1887 12.5573 15.2126 12.5553C15.2195 12.6108 15.2252 12.6608 15.2317 12.7149C15.1804 12.7221 15.1309 12.7293 15.0812 12.7367C14.8438 12.7708 14.6066 12.8042 14.3695 12.839C14.3067 12.8485 14.2424 12.855 14.1826 12.8744C13.2785 13.1714 12.3748 13.4701 11.4712 13.7684C11.4558 13.7735 11.441 13.7799 11.4259 13.7859C11.4346 13.7902 11.4417 13.7901 11.4484 13.7888C11.6717 13.7425 11.8951 13.6962 12.1184 13.6499C12.7985 13.5083 13.4786 13.3675 14.1584 13.2257C14.2234 13.212 14.2898 13.2008 14.3511 13.177C14.6403 13.0639 14.928 12.947 15.2163 12.8315C15.2294 12.8264 15.2427 12.8223 15.2579 12.8172C15.2789 12.8675 15.2987 12.9149 15.3192 12.9645C15.3031 12.9721 15.2887 12.979 15.2744 12.9852C14.9901 13.1068 14.7061 13.2283 14.4218 13.3502C14.3981 13.3605 14.3747 13.3726 14.3533 13.3867C13.5545 13.9105 12.7557 14.4347 11.9571 14.9588C11.9457 14.9661 11.9348 14.9744 11.9236 14.9824C11.9486 14.9785 11.9702 14.9681 11.9916 14.9572C12.8354 14.5322 13.6792 14.1072 14.5229 13.6819C14.5459 13.6704 14.5683 13.6565 14.589 13.641C14.8379 13.4548 15.0864 13.2685 15.3352 13.0821C15.3474 13.0727 15.3602 13.0646 15.3735 13.0554C15.4079 13.0996 15.4391 13.1402 15.4716 13.1818C15.4591 13.1924 15.4494 13.201 15.4393 13.2089C15.2827 13.3324 15.1252 13.455 14.969 13.5786C14.8152 13.7007 14.6517 13.8115 14.5307 13.97C14.5235 13.9792 14.5151 13.9873 14.5074 13.996C13.9176 14.6574 13.328 15.3187 12.7379 15.9804C12.7287 15.9905 12.7206 16.0015 12.7117 16.0121C12.7302 16.0057 12.7439 15.9942 12.7572 15.9824C13.4659 15.35 14.1746 14.7178 14.8832 14.0853C14.9046 14.0661 14.9245 14.0448 14.9424 14.0223C15.1338 13.7795 15.3247 13.5359 15.5161 13.2927C15.5256 13.2806 15.5357 13.2688 15.5463 13.2559C15.5899 13.2901 15.6302 13.3221 15.6731 13.3556C15.6626 13.37 15.6535 13.3827 15.644 13.3953C15.4586 13.6428 15.2729 13.8904 15.0878 14.1382C15.0734 14.1577 15.0598 14.1786 15.0487 14.2002C14.6161 15.0583 14.184 15.9163 13.7518 16.7745C13.7459 16.7866 13.741 16.7992 13.7356 16.8116C13.7486 16.802 13.7571 16.7903 13.7647 16.7785C14.2881 15.981 14.8115 15.1835 15.3342 14.3855C15.3523 14.3579 15.3681 14.3282 15.3812 14.298C15.5022 14.0164 15.6224 13.7349 15.7429 13.4534C15.7495 13.4381 15.7569 13.4235 15.7638 13.4083C15.8167 13.4309 15.8636 13.4508 15.9118 13.4711C15.9041 13.4911 15.8984 13.5076 15.8921 13.5237C15.7782 13.8077 15.6639 14.0919 15.5502 14.3763C15.542 14.3963 15.5342 14.4169 15.5299 14.4379C15.466 14.7431 15.4026 15.0485 15.3393 15.354C15.2125 15.9649 15.0855 16.5755 14.959 17.1863C14.9513 17.2227 14.9446 17.2593 14.9377 17.2955C14.9498 17.283 14.9559 17.2685 14.9607 17.254C15.2387 16.412 15.5173 15.5699 15.7943 14.7275C15.8268 14.629 15.869 14.5332 15.8797 14.4284C15.8837 14.3867 15.8914 14.3453 15.8973 14.3039C15.9274 14.0922 15.9576 13.8806 15.988 13.6689C15.9963 13.6122 16.0048 13.5554 16.0137 13.4962C16.0689 13.5033 16.1195 13.5094 16.1729 13.5163C16.1708 13.5398 16.1698 13.56 16.1675 13.5798C16.1574 13.6628 16.1468 13.7462 16.1369 13.8293C16.1145 14.0157 16.0913 14.202 16.0699 14.3887C16.0633 14.4457 16.0547 14.5036 16.0568 14.5609C16.0639 14.7414 16.0754 14.9216 16.0857 15.102C16.0913 15.2118 16.0978 15.3215 16.1042 15.4311C16.1179 15.6692 16.132 15.9072 16.1455 16.1454C16.1522 16.2607 16.1583 16.3762 16.1648 16.4917C16.1789 16.737 16.1927 16.982 16.207 17.2274C16.2123 17.3198 16.2185 17.4116 16.2243 17.5037C16.2292 17.485 16.2306 17.4662 16.2318 17.4475C16.2408 17.2845 16.2497 17.1213 16.2592 16.9584C16.273 16.7175 16.287 16.4762 16.3008 16.2354C16.3103 16.0725 16.3192 15.9094 16.3286 15.7463C16.3425 15.5052 16.3562 15.2641 16.3703 15.0235C16.3775 14.8993 16.3862 14.7752 16.3919 14.6511C16.395 14.5921 16.3957 14.5325 16.3919 14.4736C16.3884 14.4146 16.3776 14.356 16.3704 14.2973C16.3417 14.0592 16.3132 13.8212 16.2847 13.583C16.2819 13.5608 16.281 13.5385 16.2792 13.516C16.335 13.5091 16.3848 13.5031 16.4371 13.4965C16.441 13.5172 16.4448 13.5355 16.4474 13.5536C16.4546 13.6037 16.4611 13.6539 16.4684 13.7039C16.4994 13.9212 16.5308 14.1384 16.5618 14.3557C16.5736 14.4387 16.5863 14.5209 16.6142 14.6008C16.6624 14.7385 16.7067 14.8776 16.7521 15.0161C17.0007 15.7675 17.2485 16.519 17.4968 17.2705C17.5003 17.2813 17.505 17.292 17.5092 17.3026C17.5064 17.255 17.4974 17.21 17.488 17.1652C17.3936 16.7112 17.2993 16.2575 17.2049 15.8035C17.1195 15.3917 17.035 14.9805 16.9489 14.5692C16.934 14.4986 16.9231 14.4275 16.8953 14.3595C16.7811 14.0786 16.6691 13.7968 16.5564 13.5151C16.5509 13.5007 16.5455 13.4862 16.5399 13.4704C16.5912 13.4491 16.6388 13.4296 16.6879 13.4092C16.6952 13.4247 16.702 13.4376 16.7073 13.4507C16.8289 13.735 16.9504 14.0192 17.0725 14.3034C17.0836 14.3298 17.0973 14.3556 17.1131 14.3796C17.5963 15.1169 18.0801 15.854 18.5638 16.5913C18.6148 16.6692 18.666 16.7469 18.7174 16.8247C18.7165 16.8107 18.7116 16.7991 18.7059 16.7879C18.2721 15.9256 17.838 15.0637 17.4035 14.202C17.3933 14.1816 17.381 14.1615 17.367 14.1431C17.1792 13.8919 16.9913 13.641 16.8033 13.3899C16.7947 13.3787 16.7877 13.3669 16.7796 13.3548C16.8231 13.3209 16.8637 13.2892 16.9058 13.2563C16.9165 13.2697 16.9257 13.2806 16.9344 13.2918C17.1278 13.5373 17.3204 13.7829 17.5136 14.0283C17.5288 14.0473 17.5457 14.0655 17.5638 14.0819C17.9973 14.4687 18.431 14.8557 18.8646 15.2423C19.1431 15.4905 19.4213 15.739 19.6998 15.987C19.709 15.9954 19.7171 16.0069 19.7387 16.0097C19.7263 15.9952 19.7189 15.9865 19.7113 15.9779C19.0792 15.2692 18.4472 14.5605 17.8145 13.8517C17.7917 13.8261 17.7659 13.8023 17.7386 13.7809C17.4972 13.5901 17.2548 13.4002 17.0128 13.2097C17.0019 13.201 16.991 13.1916 16.9792 13.1818C17.013 13.139 17.045 13.0984 17.0787 13.0554C17.0928 13.0655 17.1056 13.0744 17.1183 13.0839C17.2988 13.2191 17.4813 13.3514 17.659 13.4902C17.8122 13.61 17.9766 13.7091 18.1506 13.7957C18.9301 14.1848 19.7071 14.5786 20.4854 14.9703C20.4987 14.977 20.5125 14.9828 20.5262 14.989C20.516 14.9733 20.503 14.9644 20.49 14.9557C19.6924 14.4324 18.895 13.9092 18.0971 13.3862C18.0767 13.3727 18.055 13.3611 18.0326 13.3514C17.7483 13.2295 17.4641 13.108 17.1801 12.9866C17.1642 12.9798 17.1488 12.9723 17.1321 12.9645C17.1534 12.9143 17.1734 12.8668 17.1942 12.8171C17.2102 12.8228 17.2236 12.827 17.2367 12.8323C17.525 12.9478 17.8131 13.0634 18.1016 13.1786C18.1243 13.1876 18.1479 13.1956 18.1717 13.2005C18.5688 13.2833 18.9663 13.3654 19.3635 13.4479C19.8695 13.5531 20.3756 13.6585 20.8815 13.7635C20.9292 13.7735 20.977 13.783 21.025 13.7925C21.0087 13.7786 20.9903 13.7721 20.9716 13.7661C20.127 13.4872 19.2824 13.2079 18.4374 12.9298C18.3486 12.9005 18.2617 12.8643 18.1677 12.8511C17.8946 12.8134 17.6214 12.7734 17.3486 12.7339C17.3062 12.7278 17.2637 12.7209 17.2192 12.7142C17.2264 12.659 17.2329 12.6082 17.2394 12.5559C17.2496 12.5563 17.2568 12.5562 17.2637 12.5571Z" fill="url(#paint8_radial_74_26)"/>
</g>
<defs>
<linearGradient id="paint0_linear_74_26" x1="6.20605" y1="1.10367" x2="6.20605" y2="27.1037" gradientUnits="userSpaceOnUse">
<stop stop-color="#FFA800"/>
<stop offset="1" stop-color="#FFCE4F"/>
</linearGradient>
<linearGradient id="paint1_linear_74_26" x1="53.3536" y1="8.10367" x2="60.3336" y2="8.75879" gradientUnits="userSpaceOnUse">
<stop stop-color="white"/>
<stop offset="1" stop-color="#ECECEC"/>
</linearGradient>
<linearGradient id="paint2_linear_74_26" x1="45.7966" y1="8.10367" x2="51.5102" y2="8.54134" gradientUnits="userSpaceOnUse">
<stop stop-color="white"/>
<stop offset="1" stop-color="#ECECEC"/>
</linearGradient>
<linearGradient id="paint3_linear_74_26" x1="36.9629" y1="8.10367" x2="43.943" y2="8.75879" gradientUnits="userSpaceOnUse">
<stop stop-color="white"/>
<stop offset="1" stop-color="#ECECEC"/>
</linearGradient>
<linearGradient id="paint4_linear_74_26" x1="28.1817" y1="8.10367" x2="35.1618" y2="8.75879" gradientUnits="userSpaceOnUse">
<stop stop-color="white"/>
<stop offset="1" stop-color="#ECECEC"/>
</linearGradient>
<linearGradient id="paint5_linear_74_26" x1="33.9918" y1="3.28788" x2="28.8567" y2="20.9826" gradientUnits="userSpaceOnUse">
<stop stop-color="#DDFF0B"/>
<stop offset="1" stop-color="#ABE700"/>
</linearGradient>
<linearGradient id="paint6_linear_74_26" x1="16.7061" y1="1.10367" x2="16.7061" y2="27.1037" gradientUnits="userSpaceOnUse">
<stop stop-color="white"/>
<stop offset="1" stop-color="#EAEAEA"/>
</linearGradient>
<linearGradient id="paint7_linear_74_26" x1="16.2061" y1="8.10367" x2="16.2061" y2="17.1037" gradientUnits="userSpaceOnUse">
<stop stop-color="white"/>
<stop offset="1" stop-color="#EEEEEE"/>
</linearGradient>
<radialGradient id="paint8_radial_74_26" cx="0" cy="0" r="1" gradientUnits="userSpaceOnUse" gradientTransform="translate(16.226 12.5037) rotate(90) scale(5)">
<stop offset="0.367725" stop-color="#00B3FF"/>
<stop offset="0.752725" stop-color="#0041A3"/>
</radialGradient>
<clipPath id="clip0_74_26">
<rect width="63" height="25" fill="white"/>
</clipPath>
</defs>
</svg>
