<svg width="73" height="32" viewBox="0 0 73 32" fill="none" xmlns="http://www.w3.org/2000/svg">
<path d="M4.50235 13.7845C4.50235 13.0165 4.64635 12.2911 4.93435 11.6085C5.23301 10.9258 5.63301 10.3338 6.13435 9.83248C6.64635 9.32048 7.24368 8.92048 7.92635 8.63247C8.60901 8.33381 9.33435 8.18447 10.1023 8.18447C10.881 8.18447 11.6063 8.32847 12.2783 8.61648V10.8565C12.0437 10.6538 11.777 10.4938 11.4783 10.3765C11.1903 10.2591 10.8597 10.2005 10.4863 10.2005C10.0063 10.2005 9.55301 10.2965 9.12635 10.4885C8.71035 10.6805 8.34235 10.9418 8.02235 11.2725C7.70235 11.5925 7.45168 11.9711 7.27035 12.4085C7.08901 12.8458 6.99835 13.3045 6.99835 13.7845C6.99835 14.1791 7.06235 14.5631 7.19035 14.9365C7.32901 15.2991 7.51035 15.6298 7.73435 15.9285C7.96901 16.2165 8.24635 16.4671 8.56635 16.6805C8.88635 16.8938 9.23301 17.0485 9.60635 17.1445C9.64901 17.1551 9.70235 17.1658 9.76635 17.1765C9.84101 17.1871 9.91568 17.1978 9.99035 17.2085C10.065 17.2191 10.1397 17.2298 10.2143 17.2405C10.289 17.2405 10.3477 17.2458 10.3903 17.2565V13.5765H12.8703V19.3845H9.86235C9.11568 19.3525 8.41701 19.1871 7.76635 18.8885C7.11568 18.5791 6.54501 18.1738 6.05435 17.6725C5.57435 17.1605 5.19568 16.5738 4.91835 15.9125C4.64101 15.2405 4.50235 14.5311 4.50235 13.7845Z" fill="url(#paint0_linear_104_53)"/>
<path d="M58.1542 10.0565V12.9045H59.4502C59.9516 12.9045 60.3516 12.7925 60.6502 12.5685C60.9596 12.3445 61.1142 11.9818 61.1142 11.4805C61.1142 10.9791 60.9596 10.6165 60.6502 10.3925C60.3516 10.1685 59.9516 10.0565 59.4502 10.0565H58.1542ZM63.5942 11.6565C63.5942 12.1365 63.5249 12.5471 63.3862 12.8885C63.2476 13.2298 63.0716 13.5178 62.8582 13.7525C62.6449 13.9765 62.4049 14.1578 62.1382 14.2965C61.8822 14.4351 61.6369 14.5418 61.4022 14.6165C61.1676 14.6911 60.9596 14.7391 60.7782 14.7605C60.5969 14.7818 60.4742 14.7925 60.4102 14.7925H58.1542V19.3845H55.6742V8.18448H60.4102C60.8796 8.18448 61.3062 8.26981 61.6902 8.44048C62.0849 8.61115 62.4209 8.85115 62.6982 9.16048C62.9862 9.46981 63.2049 9.83781 63.3542 10.2645C63.5142 10.6805 63.5942 11.1445 63.5942 11.6565Z" fill="url(#paint1_linear_104_53)"/>
<path d="M48.2055 8.18448H54.6695V10.0565H50.6855V12.2645H54.1895V14.1365H50.6855V17.4965H54.6695V19.3845H48.2055V8.18448Z" fill="url(#paint2_linear_104_53)"/>
<path d="M41.7636 10.0565V12.9045H43.0596C43.5609 12.9045 43.9609 12.7925 44.2596 12.5685C44.5689 12.3445 44.7236 11.9818 44.7236 11.4805C44.7236 10.9791 44.5689 10.6165 44.2596 10.3925C43.9609 10.1685 43.5609 10.0565 43.0596 10.0565H41.7636ZM47.2036 11.6565C47.2036 12.1898 47.1183 12.6431 46.9476 13.0165C46.7769 13.3898 46.5583 13.6991 46.2916 13.9445C46.0356 14.1791 45.7529 14.3605 45.4436 14.4885C45.1343 14.6058 44.8356 14.6805 44.5476 14.7125C44.4729 14.7231 44.3716 14.7338 44.2436 14.7445C44.1263 14.7445 44.0356 14.7498 43.9716 14.7605L47.2036 19.3845H44.9636L41.7636 14.7925V19.3845H39.2836V8.18448H44.0196C44.4889 8.18448 44.9156 8.26981 45.2996 8.44048C45.6943 8.61115 46.0303 8.85115 46.3076 9.16048C46.5956 9.46981 46.8143 9.83781 46.9636 10.2645C47.1236 10.6805 47.2036 11.1445 47.2036 11.6565Z" fill="url(#paint3_linear_104_53)"/>
<path d="M32.9823 10.0565V12.9045H34.2784C34.7797 12.9045 35.1797 12.7925 35.4784 12.5685C35.7877 12.3445 35.9424 11.9818 35.9424 11.4805C35.9424 10.9791 35.7877 10.6165 35.4784 10.3925C35.1797 10.1685 34.7797 10.0565 34.2784 10.0565H32.9823ZM38.4224 11.6565C38.4224 12.1365 38.353 12.5471 38.2144 12.8885C38.0757 13.2298 37.8997 13.5178 37.6864 13.7525C37.473 13.9765 37.233 14.1578 36.9664 14.2965C36.7104 14.4351 36.465 14.5418 36.2304 14.6165C35.9957 14.6911 35.7877 14.7391 35.6064 14.7605C35.425 14.7818 35.3024 14.7925 35.2384 14.7925H32.9823V19.3845H30.5023V11.4805L35.2384 8.18448C35.7077 8.18448 36.1344 8.26981 36.5184 8.44048C36.913 8.61115 37.249 8.85115 37.5264 9.16048C37.8144 9.46981 38.033 9.83781 38.1824 10.2645C38.3424 10.6805 38.4224 11.1445 38.4224 11.6565Z" fill="url(#paint4_linear_104_53)"/>
<path d="M22.5063 13.3845L26.5063 17.8845C26.5063 17.8845 27.4302 14.395 29.0063 12.8845C30.1429 11.7952 31.1543 12.4953 32.5063 10.8845C33.8584 9.27369 35.5063 6.38448 36.0063 3.88448" stroke="url(#paint5_linear_104_53)" stroke-width="2" stroke-linecap="round"/>
<path d="M13.5023 13.7845C13.5023 13.0165 13.6463 12.2911 13.9343 11.6085C14.233 10.9258 14.633 10.3338 15.1343 9.83248C15.6463 9.32048 16.2437 8.92048 16.9263 8.63247C17.609 8.33381 18.3343 8.18447 19.1023 8.18447C19.8703 8.18447 20.5957 8.33381 21.2783 8.63247C21.961 8.92048 22.553 9.32048 23.0543 9.83248C23.5663 10.3338 23.9663 10.9258 24.2543 11.6085C24.553 12.2911 24.7023 13.0165 24.7023 13.7845C24.7023 14.5525 24.553 15.2778 24.2543 15.9605C23.9663 16.6431 23.5663 17.2405 23.0543 17.7525C22.553 18.2538 21.961 18.6538 21.2783 18.9525C20.5957 19.2405 19.8703 19.3845 19.1023 19.3845C18.3343 19.3845 17.609 19.2405 16.9263 18.9525C16.2437 18.6538 15.6463 18.2538 15.1343 17.7525C14.633 17.2405 14.233 16.6431 13.9343 15.9605C13.6463 15.2778 13.5023 14.5525 13.5023 13.7845ZM15.9823 13.7845C15.9823 14.2111 16.0623 14.6165 16.2223 15.0005C16.393 15.3845 16.617 15.7151 16.8943 15.9925C17.1717 16.2698 17.5023 16.4938 17.8863 16.6645C18.2703 16.8245 18.6757 16.9045 19.1023 16.9045C19.5397 16.9045 19.945 16.8245 20.3183 16.6645C20.7023 16.4938 21.033 16.2698 21.3103 15.9925C21.5877 15.7151 21.8063 15.3845 21.9663 15.0005C22.137 14.6165 22.2223 14.2111 22.2223 13.7845C22.2223 13.3471 22.137 12.9418 21.9663 12.5685C21.8063 12.1845 21.5877 11.8538 21.3103 11.5765C21.033 11.2991 20.7023 11.0805 20.3183 10.9205C19.945 10.7498 19.5397 10.6645 19.1023 10.6645C18.6757 10.6645 18.2703 10.7498 17.8863 10.9205C17.5023 11.0805 17.1717 11.2991 16.8943 11.5765C16.617 11.8538 16.393 12.1845 16.2223 12.5685C16.0623 12.9418 15.9823 13.3471 15.9823 13.7845Z" fill="url(#paint6_linear_104_53)"/>
<ellipse cx="19.0063" cy="13.8845" rx="5" ry="4.5" fill="url(#paint7_linear_104_53)"/>
<path fill-rule="evenodd" clip-rule="evenodd" d="M20.064 13.8379C20.1413 13.847 20.219 13.856 20.2964 13.8654C20.4814 13.8876 20.6662 13.9106 20.8514 13.9316C20.9457 13.9425 21.0399 13.9589 21.1359 13.9523C21.296 13.9408 21.4565 13.9336 21.6163 13.9243C21.84 13.9112 22.0636 13.8976 22.2874 13.8845C22.4676 13.8744 22.6482 13.8652 22.8284 13.8551C23.1256 13.8382 23.4228 13.8209 23.7199 13.804C23.8221 13.7979 23.9242 13.7916 24.0263 13.7856C23.9848 13.779 23.9432 13.7753 23.9017 13.773C23.7732 13.7658 23.6445 13.7594 23.5163 13.752C23.2869 13.739 23.0576 13.7249 22.8281 13.7117C22.6534 13.7019 22.4792 13.6927 22.3044 13.6829C22.0589 13.6691 21.8138 13.6548 21.5685 13.6407C21.4475 13.6336 21.3262 13.6252 21.205 13.6189C21.1305 13.6152 21.0555 13.6071 20.9802 13.6183C20.8974 13.6303 20.8141 13.6395 20.731 13.6494C20.543 13.672 20.3552 13.6948 20.1675 13.7171C20.1252 13.7223 20.0825 13.726 20.0391 13.7303C20.0322 13.6744 20.0264 13.6249 20.02 13.5721C20.0373 13.5689 20.0526 13.5652 20.0678 13.5629C20.1179 13.5557 20.1678 13.5491 20.2179 13.5419C20.4337 13.5109 20.6498 13.4806 20.8655 13.4485C20.941 13.4373 21.017 13.4301 21.0905 13.4054C21.3861 13.3062 21.6826 13.2089 21.979 13.1112C22.5738 12.9146 23.1691 12.7183 23.7643 12.5217C23.7828 12.5155 23.8014 12.509 23.8198 12.5025C23.8192 12.4997 23.8184 12.4971 23.8176 12.4942C23.7713 12.5037 23.725 12.5131 23.6787 12.5226C23.2121 12.6195 22.7454 12.7163 22.2789 12.8132C21.8943 12.8931 21.5096 12.9723 21.1253 13.053C21.048 13.0694 20.9689 13.0789 20.8943 13.1089C20.6077 13.2246 20.3205 13.3392 20.0336 13.4539C20.0209 13.4592 20.0077 13.4634 19.9933 13.4681C19.9723 13.4171 19.9528 13.3698 19.9325 13.3206C19.9468 13.3137 19.9582 13.3079 19.9698 13.303C20.2553 13.1809 20.5412 13.0588 20.8264 12.9364C20.8502 12.9263 20.8738 12.9145 20.8953 12.9004C21.6967 12.3749 22.4976 11.8493 23.2989 11.3235C23.3117 11.3153 23.324 11.3065 23.3369 11.2981C23.3197 11.2985 23.3058 11.3048 23.2921 11.3117C22.438 11.7418 21.5837 12.1718 20.7297 12.6024C20.7053 12.6148 20.6818 12.6295 20.66 12.6459C20.4122 12.8312 20.1649 13.0168 19.9174 13.2022C19.9049 13.2115 19.8919 13.22 19.8783 13.2298C19.8444 13.1861 19.8125 13.1458 19.7792 13.1034C19.7927 13.0924 19.8034 13.0832 19.8145 13.0743C20.0588 12.8823 20.3032 12.6902 20.5473 12.4979C20.5663 12.4829 20.585 12.4663 20.6013 12.4481C20.9491 12.059 21.2964 11.6694 21.6438 11.28C21.9345 10.9541 22.2251 10.6283 22.5157 10.3024C22.524 10.293 22.5317 10.2832 22.5398 10.2736C22.5237 10.2772 22.5137 10.2857 22.5044 10.2943C21.7901 10.9312 21.0759 11.5682 20.3618 12.2054C20.3446 12.2208 20.3288 12.2378 20.3147 12.256C20.1213 12.5013 19.9286 12.747 19.7356 12.9924C19.726 13.0048 19.7157 13.0165 19.705 13.0295C19.6619 12.9954 19.6216 12.9634 19.5791 12.93C19.5894 12.9154 19.5982 12.9024 19.6076 12.8899C19.7913 12.6445 19.9753 12.3994 20.1584 12.1537C20.1799 12.1249 20.1988 12.0936 20.215 12.0616C20.6415 11.2153 21.0678 10.3686 21.4939 9.52203C21.5002 9.50961 21.5051 9.49673 21.511 9.484C21.4962 9.49305 21.4875 9.50532 21.4792 9.51805C20.9577 10.3133 20.436 11.1084 19.9146 11.9037C19.8984 11.9289 19.8836 11.9559 19.872 11.9835C19.7502 12.2663 19.6295 12.5491 19.5084 12.8321C19.5024 12.8465 19.4954 12.8605 19.488 12.8763C19.4382 12.8554 19.3905 12.8355 19.3405 12.8148C19.3457 12.7993 19.3501 12.7858 19.3553 12.7728C19.4708 12.4844 19.5866 12.1961 19.7019 11.9077C19.7103 11.8864 19.7182 11.8643 19.7229 11.8419C19.8044 11.4518 19.8853 11.0614 19.9664 10.6713C20.0785 10.1312 20.1909 9.59105 20.303 9.05088C20.3075 9.02894 20.3107 9.00686 20.3147 8.98493C20.294 9.02404 20.2802 9.06483 20.2667 9.10563C19.9982 9.91896 19.7295 10.732 19.4615 11.5455C19.4228 11.6631 19.3805 11.7792 19.365 11.9042C19.336 12.1378 19.2992 12.3705 19.2658 12.6034C19.2569 12.6645 19.2478 12.7255 19.2385 12.7887C19.1834 12.782 19.1328 12.7757 19.0785 12.7691C19.0812 12.7438 19.0825 12.7209 19.0853 12.6982C19.0957 12.6094 19.1068 12.5205 19.1175 12.4315C19.1364 12.2752 19.1557 12.1189 19.1739 11.9626C19.1857 11.8608 19.204 11.7596 19.194 11.6561C19.1888 11.6015 19.1874 11.5465 19.1844 11.4915C19.1678 11.2001 19.1505 10.9085 19.1339 10.6171C19.1195 10.3674 19.1052 10.1179 19.091 9.8682C19.0764 9.61283 19.062 9.35731 19.0473 9.10195C19.0413 8.99658 19.035 8.89137 19.0287 8.786C19.027 8.78554 19.0255 8.78493 19.0243 8.78447C19.0183 8.87956 19.0122 8.97465 19.0068 9.06974C18.9994 9.19811 18.993 9.32664 18.9858 9.45501C18.9726 9.68016 18.9591 9.90531 18.9462 10.1303C18.9387 10.2588 18.9326 10.3872 18.9252 10.5157C18.9116 10.7538 18.8978 10.9918 18.8836 11.23C18.8763 11.3567 18.8679 11.4834 18.8614 11.6102C18.8576 11.6823 18.8513 11.7541 18.861 11.8264C18.8758 11.9352 18.8881 12.0444 18.9011 12.1534C18.9205 12.314 18.9402 12.4746 18.9592 12.6353C18.9643 12.6792 18.9686 12.7234 18.9734 12.7692C18.9186 12.776 18.8689 12.7821 18.8156 12.7885C18.8122 12.7726 18.8085 12.7576 18.8061 12.7424C18.8015 12.7109 18.7976 12.6792 18.7932 12.6479C18.7625 12.4335 18.7318 12.2189 18.7005 12.0045C18.6834 11.8846 18.665 11.7659 18.6263 11.6493C18.3337 10.7709 18.045 9.89151 17.7545 9.01238C17.7489 8.9952 17.7421 8.97833 17.7343 8.95747C17.7331 8.96514 17.7318 8.96806 17.7326 8.97066C17.7992 9.29305 17.8662 9.61529 17.9333 9.93767C18.0566 10.5315 18.1796 11.1254 18.3037 11.7191C18.3183 11.7881 18.3287 11.8579 18.356 11.9245C18.4704 12.207 18.5829 12.4901 18.6964 12.7731C18.7016 12.7861 18.7062 12.7994 18.7116 12.8149C18.6619 12.8356 18.6144 12.8553 18.5639 12.8764C18.5569 12.8608 18.55 12.8467 18.544 12.8324C18.4231 12.551 18.3031 12.2692 18.1821 11.9879C18.169 11.9576 18.1534 11.9278 18.1353 11.9002C17.6118 11.1012 17.0876 10.3024 16.5633 9.50378C16.5564 9.49335 16.5488 9.48354 16.5412 9.47326C16.5431 9.49136 16.5503 9.50639 16.5577 9.52127C16.986 10.3716 17.4141 11.222 17.8429 12.0723C17.857 12.1005 17.8738 12.1277 17.8929 12.1531C18.0778 12.401 18.2635 12.6484 18.4489 12.8959C18.4573 12.907 18.4645 12.9186 18.4725 12.9304C18.4288 12.9648 18.3894 12.9958 18.3462 13.0295C18.331 13.0108 18.3166 12.9931 18.3026 12.9752C18.1141 12.7355 17.9257 12.4955 17.7371 12.2559C17.722 12.2367 17.7049 12.2186 17.6869 12.2025C17.2209 11.7866 16.755 11.3709 16.2887 10.9553C16.0438 10.7367 15.799 10.5183 15.554 10.3001C15.5448 10.2918 15.5371 10.2792 15.5163 10.2788C15.5264 10.291 15.533 10.2989 15.5396 10.3062C16.1728 11.0162 16.8056 11.7261 17.4394 12.4356C17.4604 12.4593 17.4836 12.4813 17.5084 12.501C17.7513 12.6925 17.9947 12.8835 18.2377 13.0747C18.2497 13.0841 18.2607 13.0942 18.2724 13.1043C18.2377 13.1481 18.2066 13.1876 18.1738 13.2292C18.1605 13.22 18.1485 13.2125 18.1371 13.204C17.8884 13.0178 17.6398 12.8313 17.391 12.6451C17.3726 12.6313 17.3532 12.6182 17.3328 12.6079C16.4722 12.174 15.6115 11.7406 14.7509 11.3073C14.7408 11.3021 14.7301 11.2981 14.7196 11.2936C14.7281 11.3064 14.7383 11.3139 14.7491 11.3209C15.5476 11.845 16.3465 12.3691 17.1453 12.8928C17.1718 12.91 17.1999 12.9251 17.229 12.9376C17.5119 13.0593 17.7947 13.1801 18.0773 13.3011C18.0919 13.3073 18.1056 13.3142 18.1197 13.3209C18.098 13.372 18.0781 13.4197 18.0577 13.4688C18.0415 13.4626 18.0281 13.4577 18.0148 13.4525C17.799 13.366 17.5836 13.279 17.3673 13.1931C17.2305 13.1387 17.095 13.0846 16.9487 13.0559C16.5193 12.9718 16.0916 12.8797 15.6633 12.7907C15.2519 12.7051 14.8405 12.6194 14.4292 12.5338C14.3548 12.5183 14.2804 12.5034 14.2064 12.4884C14.2228 12.4993 14.2403 12.506 14.2579 12.5119C15.1217 12.7971 15.9857 13.0826 16.8495 13.3675C16.9153 13.3893 16.9807 13.4126 17.0481 13.4281C17.1128 13.4427 17.1795 13.4479 17.2453 13.4573C17.4955 13.4927 17.7456 13.5284 17.9959 13.5642C18.008 13.566 18.0201 13.5704 18.0321 13.5738C18.0254 13.627 18.0191 13.6766 18.0123 13.7298C17.9928 13.7283 17.9758 13.7278 17.9588 13.7258C17.8755 13.7157 17.7926 13.7048 17.7093 13.695C17.5202 13.6718 17.331 13.6491 17.1416 13.6267C17.0899 13.6206 17.0381 13.6102 16.9866 13.612C16.8407 13.6169 16.6949 13.6267 16.5491 13.6353C16.275 13.6513 16.0012 13.6674 15.727 13.6836C15.531 13.6953 15.3346 13.7063 15.1383 13.7175C14.857 13.7333 14.5756 13.7485 14.2942 13.7646C14.2048 13.7697 14.1157 13.7757 14.0263 13.7813C14.0449 13.7868 14.0633 13.7876 14.0817 13.7885C14.2461 13.7977 14.4108 13.8069 14.5753 13.8164C14.8061 13.8296 15.0369 13.8434 15.2677 13.8566C15.3919 13.864 15.516 13.87 15.6402 13.8773C15.8653 13.8904 16.0903 13.9037 16.3152 13.9171C16.5072 13.9281 16.6989 13.9398 16.8909 13.9499C16.9441 13.9528 16.9979 13.9539 17.051 13.9494C17.1342 13.9422 17.2172 13.9293 17.3005 13.9191C17.5141 13.8933 17.7277 13.8678 17.9415 13.8422C17.9652 13.8395 17.989 13.8381 18.0129 13.8361C18.0198 13.8916 18.0255 13.9416 18.0319 13.9957C17.9807 14.0029 17.9312 14.0102 17.8815 14.0175C17.6441 14.0516 17.4069 14.085 17.1698 14.1198C17.107 14.1293 17.0427 14.1358 16.9829 14.1552C16.0788 14.4522 15.1751 14.7509 14.2715 15.0493C14.2561 15.0543 14.2413 15.0608 14.2261 15.0667C14.2349 15.071 14.2419 15.0709 14.2487 15.0696C14.472 15.0233 14.6954 14.977 14.9187 14.9307C15.5988 14.7891 16.2789 14.6483 16.9587 14.5065C17.0237 14.4928 17.0901 14.4816 17.1514 14.4578C17.4406 14.3447 17.7283 14.2278 18.0166 14.1123C18.0296 14.1072 18.043 14.1031 18.0582 14.098C18.0792 14.1483 18.099 14.1957 18.1195 14.2453C18.1034 14.2529 18.089 14.2598 18.0747 14.266C17.7904 14.3876 17.5064 14.5091 17.2221 14.631C17.1983 14.6413 17.175 14.6534 17.1536 14.6675C16.3548 15.1913 15.556 15.7155 14.7573 16.2396C14.746 16.2469 14.7351 16.2552 14.7239 16.2632C14.7489 16.2594 14.7705 16.2489 14.7919 16.238C15.6357 15.813 16.4794 15.388 17.3232 14.9627C17.3462 14.9512 17.3686 14.9373 17.3893 14.9218C17.6381 14.7356 17.8867 14.5493 18.1355 14.3629C18.1477 14.3536 18.1605 14.3454 18.1738 14.3362C18.2081 14.3804 18.2394 14.421 18.2719 14.4626C18.2594 14.4732 18.2497 14.4818 18.2396 14.4898C18.083 14.6132 17.9255 14.7358 17.7693 14.8594C17.6155 14.9815 17.452 15.0923 17.331 15.2508C17.3238 15.26 17.3154 15.2681 17.3077 15.2769C16.7179 15.9382 16.1283 16.5995 15.5382 17.2612C15.529 17.2713 15.5209 17.2823 15.512 17.2929C15.5305 17.2865 15.5442 17.275 15.5575 17.2632C16.2661 16.6308 16.9749 15.9986 17.6835 15.3661C17.7049 15.3469 17.7248 15.3256 17.7427 15.3031C17.9341 15.0603 18.125 14.8167 18.3164 14.5735C18.3259 14.5614 18.336 14.5496 18.3466 14.5367C18.3902 14.5709 18.4305 14.6029 18.4734 14.6364C18.4629 14.6508 18.4538 14.6635 18.4443 14.6761C18.2589 14.9236 18.0732 15.1712 17.8881 15.419C17.8737 15.4385 17.86 15.4594 17.849 15.481C17.4164 16.3391 16.9843 17.1971 16.5521 18.0553C16.5462 18.0675 16.5412 18.08 16.5359 18.0925C16.5489 18.0828 16.5574 18.0711 16.565 18.0593C17.0884 17.2618 17.6118 16.4643 18.1345 15.6663C18.1526 15.6387 18.1684 15.6091 18.1815 15.5788C18.3025 15.2973 18.4227 15.0157 18.5432 14.7342C18.5498 14.7189 18.5572 14.7043 18.5641 14.6891C18.617 14.7117 18.6639 14.7316 18.712 14.7519C18.7044 14.772 18.6987 14.7884 18.6924 14.8045C18.5785 15.0885 18.4642 15.3727 18.3505 15.6571C18.3423 15.6772 18.3345 15.6977 18.3302 15.7187C18.2663 16.0239 18.2029 16.3293 18.1396 16.6348C18.0128 17.2457 17.8858 17.8563 17.7593 18.4671C17.7516 18.5035 17.7449 18.5401 17.738 18.5763C17.7501 18.5638 17.7562 18.5494 17.761 18.5348C18.039 17.6928 18.3176 16.8508 18.5946 16.0083C18.6271 15.9098 18.6693 15.814 18.68 15.7092C18.684 15.6675 18.6917 15.6261 18.6976 15.5847C18.7277 15.373 18.7579 15.1614 18.7883 14.9497C18.7965 14.893 18.8051 14.8362 18.814 14.777C18.8692 14.7841 18.9198 14.7902 18.9732 14.7971C18.9711 14.8206 18.9701 14.8408 18.9678 14.8606C18.9577 14.9436 18.9471 15.027 18.9372 15.1101C18.9148 15.2965 18.8916 15.4828 18.8702 15.6695C18.8636 15.7265 18.855 15.7844 18.8571 15.8417C18.8642 16.0222 18.8757 16.2025 18.8859 16.3828C18.8916 16.4926 18.8981 16.6023 18.9045 16.712C18.9182 16.95 18.9323 17.188 18.9458 17.4262C18.9525 17.5415 18.9586 17.657 18.9651 17.7725C18.9792 18.0178 18.993 18.2629 19.0072 18.5082C19.0126 18.6006 19.0187 18.6924 19.0246 18.7845C19.0295 18.7658 19.0309 18.747 19.0321 18.7283C19.0411 18.5653 19.05 18.4021 19.0595 18.2392C19.0733 17.9983 19.0873 17.757 19.1011 17.5162C19.1106 17.3534 19.1195 17.1902 19.1288 17.0271C19.1428 16.786 19.1565 16.5449 19.1706 16.3043C19.1778 16.1801 19.1865 16.056 19.1922 15.9319C19.1953 15.8729 19.196 15.8133 19.1922 15.7545C19.1887 15.6954 19.1779 15.6368 19.1707 15.5781C19.142 15.34 19.1135 15.102 19.085 14.8638C19.0822 14.8416 19.0813 14.8193 19.0795 14.7968C19.1353 14.7899 19.1851 14.7839 19.2374 14.7773C19.2413 14.798 19.2451 14.8163 19.2477 14.8344C19.2549 14.8845 19.2613 14.9347 19.2687 14.9847C19.2997 15.202 19.3311 15.4192 19.3621 15.6365C19.3739 15.7195 19.3866 15.8017 19.4145 15.8816C19.4627 16.0193 19.507 16.1584 19.5524 16.2969C19.801 17.0483 20.0488 17.7998 20.2971 18.5513C20.3006 18.5621 20.3053 18.5728 20.3095 18.5834C20.3067 18.5359 20.2977 18.4908 20.2883 18.446C20.1939 17.992 20.0995 17.5383 20.0052 17.0843C19.9198 16.6725 19.8353 16.2613 19.7491 15.85C19.7343 15.7795 19.7234 15.7083 19.6956 15.6403C19.5814 15.3594 19.4694 15.0776 19.3567 14.7959C19.3512 14.7815 19.3458 14.767 19.3402 14.7512C19.3915 14.7299 19.4391 14.7105 19.4881 14.6901C19.4955 14.7055 19.5023 14.7184 19.5076 14.7315C19.6292 15.0158 19.7507 15.3 19.8727 15.5842C19.8839 15.6106 19.8976 15.6364 19.9134 15.6604C20.3966 16.3977 20.8804 17.1348 21.3641 17.8721C21.4151 17.95 21.4663 18.0277 21.5177 18.1055C21.5168 18.0915 21.5119 18.0799 21.5062 18.0687C21.0724 17.2064 20.6383 16.3445 20.2038 15.4828C20.1935 15.4624 20.1813 15.4423 20.1673 15.4239C19.9795 15.1727 19.7916 14.9218 19.6036 14.6707C19.595 14.6595 19.588 14.6477 19.5798 14.6356C19.6234 14.6017 19.664 14.57 19.7061 14.5371C19.7168 14.5505 19.726 14.5614 19.7347 14.5726C19.9281 14.8181 20.1207 15.0637 20.3139 15.3091C20.3291 15.3281 20.346 15.3463 20.3641 15.3627C20.7976 15.7495 21.2313 16.1365 21.6649 16.5232C21.9434 16.7713 22.2216 17.0198 22.5001 17.2678C22.5093 17.2762 22.5174 17.2877 22.539 17.2905C22.5266 17.2761 22.5192 17.2673 22.5116 17.2587C21.8795 16.55 21.2475 15.8413 20.6148 15.1325C20.5919 15.1069 20.5662 15.0831 20.5389 15.0617C20.2975 14.8709 20.0551 14.681 19.8131 14.4905C19.8022 14.4818 19.7913 14.4724 19.7795 14.4626C19.8132 14.4198 19.8453 14.3792 19.879 14.3362C19.8931 14.3463 19.9059 14.3552 19.9186 14.3648C20.0991 14.4999 20.2816 14.6322 20.4593 14.771C20.6125 14.8908 20.7769 14.9899 20.9509 15.0766C21.7304 15.4657 22.5074 15.8594 23.2857 16.2511C23.299 16.2578 23.3128 16.2636 23.3265 16.2698C23.3163 16.2541 23.3033 16.2452 23.2903 16.2365C22.4927 15.7132 21.6953 15.19 20.8974 14.667C20.877 14.6536 20.8552 14.6419 20.8329 14.6322C20.5485 14.5103 20.2644 14.3888 19.9804 14.2674C19.9644 14.2606 19.9491 14.2531 19.9324 14.2453C19.9537 14.1951 19.9736 14.1476 19.9945 14.0979C20.0105 14.1036 20.0239 14.1079 20.037 14.1131C20.3253 14.2286 20.6134 14.3442 20.9019 14.4594C20.9246 14.4684 20.9482 14.4764 20.9719 14.4813C21.3691 14.5641 21.7666 14.6462 22.1638 14.7287C22.6698 14.8339 23.1759 14.9393 23.6818 15.0443C23.7295 15.0543 23.7773 15.0638 23.8253 15.0733C23.809 15.0594 23.7906 15.0529 23.7719 15.0469C22.9273 14.768 22.0826 14.4887 21.2377 14.2106C21.1489 14.1813 21.062 14.1451 20.968 14.1319C20.6948 14.0942 20.4217 14.0542 20.1489 14.0148C20.1064 14.0086 20.064 14.0017 20.0195 13.995C20.0267 13.9398 20.0331 13.889 20.0397 13.8367C20.0499 13.8372 20.0571 13.837 20.064 13.8379Z" fill="url(#paint8_radial_104_53)"/>
<path d="M19.8513 23.2551H24.1539C24.1762 23.2577 24.1873 23.2688 24.1873 23.2884C24.165 23.4192 24.0761 23.7018 23.9204 24.136C23.8799 24.17 23.8407 24.187 23.8027 24.187H19.5844C19.557 24.187 19.5399 24.1648 19.5334 24.1203C19.6943 23.5435 19.8002 23.2551 19.8513 23.2551ZM19.8513 23.3551C19.8617 23.4192 19.884 23.4912 19.918 23.571C19.918 23.5893 19.8846 23.6893 19.8179 23.8712L19.8513 23.8868H19.8669C19.9389 23.8868 19.9886 23.809 20.0161 23.6534C20.0383 23.6089 20.0494 23.5755 20.0494 23.5533H23.7203L23.8027 23.5376V23.52C23.8027 23.4977 23.7916 23.4866 23.7694 23.4866H20.1161C20.0769 23.4866 20.0049 23.4428 19.9003 23.3551H19.8513ZM23.6536 24.7187C23.6758 24.7227 23.687 24.7338 23.687 24.7521V24.7697C23.5483 25.2916 23.4541 25.5526 23.4044 25.5526C23.3848 25.5631 23.3626 25.5683 23.3377 25.5683H18.2915C18.2758 25.5683 18.2588 25.5519 18.2404 25.5192C18.3765 24.9856 18.4765 24.7187 18.5406 24.7187H23.6536ZM18.5406 24.8188V24.8365C18.5406 24.8692 18.557 24.9411 18.5897 25.0523C18.5897 25.0719 18.5681 25.1386 18.5249 25.2524L18.5563 25.2681H18.623C18.6531 25.2681 18.6865 25.185 18.7231 25.0189H23.22L23.3044 25.0032V24.9856C23.3044 24.9633 23.2933 24.9522 23.271 24.9522H18.8075C18.7761 24.9522 18.6982 24.9077 18.574 24.8188H18.5406ZM17.2575 26.151H23.171C23.2259 26.151 23.2593 26.1732 23.271 26.2177C23.101 26.7723 23.0009 27.0555 22.9708 27.0673C22.9512 27.0777 22.929 27.0829 22.9041 27.0829H16.9082C16.886 27.0829 16.8749 27.0666 16.8749 27.0339C17.0358 26.4571 17.1411 26.1687 17.1908 26.1687C17.2104 26.1569 17.2326 26.151 17.2575 26.151ZM17.2084 26.2511V26.3021C17.2084 26.3387 17.2248 26.3995 17.2575 26.4845C17.2575 26.5028 17.2241 26.6029 17.1574 26.7847C17.1797 26.7952 17.1967 26.8004 17.2084 26.8004C17.2804 26.8004 17.3301 26.7226 17.3575 26.5669C17.3798 26.5225 17.3909 26.4898 17.3909 26.4688H22.755L22.8708 26.4512V26.4021H17.4753C17.4478 26.4021 17.3589 26.3518 17.2084 26.2511ZM26.6672 23.2041C26.768 23.3048 27.0014 23.8875 27.3677 24.9522C27.3781 24.964 27.5116 25.2969 27.7679 25.9509H27.817C27.817 26.0738 27.7503 26.1353 27.6169 26.1353L27.6012 26.1687C27.6012 26.2014 27.6731 26.2236 27.817 26.2354C27.9949 26.2354 28.1002 26.1628 28.1329 26.0176C28.3108 25.4081 28.5717 24.5755 28.9157 23.52H29.3827C29.4402 23.52 29.4736 23.5036 29.4827 23.4709L29.4494 23.4552H28.9981C28.9719 23.4552 28.8837 23.4048 28.7332 23.3041V23.3375C28.7332 23.3793 28.7496 23.446 28.7823 23.5376C28.3389 24.9489 28.0949 25.7148 28.0505 25.8351L28.0171 25.8528C27.9282 25.8227 27.8837 25.7946 27.8837 25.7684V25.7351C28.0498 25.1451 28.3108 24.3185 28.6665 23.2551C28.7071 23.2211 28.7457 23.2041 28.7823 23.2041H29.8143C29.8313 23.2041 29.8483 23.2211 29.8653 23.2551C29.8091 23.4617 29.4114 24.7168 28.6724 27.0202C28.6554 27.0202 28.6338 27.0306 28.6077 27.0516H26.7006L25.6686 24.3361H25.6352C25.613 24.3361 25.5077 24.6527 25.3194 25.2858L24.77 27.0005L24.6542 27.0339H23.6046C23.5823 27.0339 23.5712 27.0228 23.5712 27.0005V26.9848C23.5712 26.96 23.9263 25.8495 24.6366 23.6534C24.7177 23.3538 24.7955 23.2041 24.8701 23.2041H26.6672ZM24.8367 23.3041V23.3375C24.8367 23.3545 24.8531 23.4212 24.8858 23.5376C24.2095 25.6422 23.8714 26.7076 23.8714 26.7337L23.9047 26.7514C23.9793 26.7514 24.0401 26.6291 24.0872 26.3845C24.1866 26.1229 24.4973 25.168 25.0192 23.52H26.4024L26.4848 23.5043V23.4709L26.4024 23.4552H25.1035C25.0695 23.4552 24.9858 23.4048 24.8524 23.3041H24.8367ZM37.1561 21.5893L37.2385 21.607V21.656C37.1273 22.0641 37.0273 22.3696 36.9383 22.5723L36.8893 22.6057H31.9117C31.8594 22.6057 31.7482 22.9052 31.5781 23.5043L30.4127 27.0673C30.3695 27.1 30.3192 27.1163 30.2616 27.1163H29.263C29.208 27.1163 29.1747 27.0947 29.1629 27.0516L30.5952 22.639L30.5461 22.6057H28.9805C28.9582 22.6057 28.9471 22.5945 28.9471 22.5723V22.5546C29.125 21.9111 29.2414 21.5893 29.2963 21.5893H37.1561ZM29.314 21.7051V21.7561C29.3362 21.8634 29.3473 21.9242 29.3473 21.9386L29.2296 22.3055C29.2414 22.3055 29.2584 22.3107 29.2806 22.3212C29.35 22.3212 29.4108 22.1995 29.4631 21.9562C29.4814 21.9118 29.5259 21.8895 29.5965 21.8895H36.8226C36.8448 21.8895 36.8559 21.8784 36.8559 21.8562V21.8385H29.6122C29.5429 21.8385 29.4598 21.7999 29.363 21.7228C29.3421 21.711 29.3258 21.7051 29.314 21.7051ZM30.8287 22.5213C30.8287 22.6181 30.7508 22.879 30.5952 23.3041L29.4631 26.8004L29.4965 26.8181H29.5475C29.5867 26.8181 29.7306 26.3962 29.9791 25.5526C30.5677 23.8195 30.862 22.8869 30.862 22.7548V22.6057L30.8444 22.5213H30.8287ZM32.671 23.2551H36.8167C36.8389 23.2577 36.85 23.2688 36.85 23.2884C36.8278 23.4192 36.7389 23.7018 36.5832 24.136C36.5427 24.17 36.5034 24.187 36.4655 24.187H32.4041C32.3767 24.187 32.3597 24.1648 32.3531 24.1203C32.514 23.5435 32.62 23.2551 32.671 23.2551ZM32.671 23.3551C32.6814 23.4192 32.7037 23.4912 32.7377 23.571C32.7377 23.5893 32.7043 23.6893 32.6376 23.8712L32.671 23.8868H32.6867C32.7586 23.8868 32.8083 23.809 32.8358 23.6534C32.858 23.6089 32.8691 23.5755 32.8691 23.5533H36.3831L36.4655 23.5376V23.52C36.4655 23.4977 36.4544 23.4866 36.4321 23.4866H32.9358C32.8966 23.4866 32.8247 23.4428 32.72 23.3551H32.671ZM36.3164 24.7187C36.3386 24.7227 36.3497 24.7338 36.3497 24.7521V24.7697C36.2111 25.2916 36.1169 25.5526 36.0672 25.5526C36.0476 25.5631 36.0253 25.5683 36.0005 25.5683H31.9548C31.9392 25.5683 31.9221 25.5519 31.9038 25.5192C32.0399 24.9856 32.1399 24.7187 32.204 24.7187H36.3164ZM32.204 24.8188V24.8365C32.204 24.8692 32.2204 24.9411 32.2531 25.0523C32.2531 25.0719 32.2315 25.1386 32.1883 25.2524L32.2197 25.2681H32.2864C32.3165 25.2681 32.3499 25.185 32.3865 25.0189H35.8828L35.9671 25.0032V24.9856C35.9671 24.9633 35.956 24.9522 35.9338 24.9522H32.4709C32.4395 24.9522 32.3616 24.9077 32.2374 24.8188H32.204ZM31.8018 26.151H35.8337C35.8887 26.151 35.922 26.1732 35.9338 26.2177C35.7637 26.7723 35.6637 27.0555 35.6336 27.0673C35.614 27.0777 35.5917 27.0829 35.5669 27.0829H31.4526C31.4303 27.0829 31.4192 27.0666 31.4192 27.0339C31.5801 26.4571 31.6854 26.1687 31.7351 26.1687C31.7547 26.1569 31.777 26.151 31.8018 26.151ZM31.7528 26.2511V26.3021C31.7528 26.3387 31.7691 26.3995 31.8018 26.4845C31.8018 26.5028 31.7685 26.6029 31.7017 26.7847C31.724 26.7952 31.741 26.8004 31.7528 26.8004C31.8247 26.8004 31.8744 26.7226 31.9019 26.5669C31.9241 26.5225 31.9352 26.4898 31.9352 26.4688H35.4178L35.5335 26.4512V26.4021H32.0196C31.9921 26.4021 31.9032 26.3518 31.7528 26.2511ZM40.727 23.2551C41.381 23.3035 41.708 23.3977 41.708 23.5376C41.7616 23.5664 41.7949 23.6828 41.808 23.8868C41.808 24.1785 41.6753 24.6004 41.4097 25.1523C41.2737 25.3773 41.0736 25.5271 40.8094 25.6016V25.6193C41.02 25.7056 41.1252 25.8665 41.1252 26.1019C41.1763 26.2929 41.2319 26.6199 41.292 27.0829L41.243 27.1163H40.001C39.9435 27.1163 39.8905 26.8881 39.8421 26.4316C39.829 26.2995 39.8127 26.2229 39.793 26.202C39.6936 26.168 39.6276 26.151 39.5949 26.151H37.6466C37.5642 26.151 37.5086 26.2347 37.4798 26.4021C37.336 26.8612 37.247 27.0941 37.213 27.1006L37.1306 27.1163H36.13C36.1143 27.1163 36.0979 27.1 36.0809 27.0673V27.0516C36.0809 27.0228 36.4805 25.7795 37.2797 23.3218L37.3464 23.2708H40.3267C40.4366 23.2708 40.57 23.2655 40.727 23.2551ZM37.3621 23.3885V23.4042C37.3621 23.4683 37.3791 23.5239 37.4131 23.571C37.4131 23.5958 37.0632 24.6723 36.3635 26.8004L36.3968 26.8181H36.4145C36.5034 26.8181 36.5479 26.7455 36.5479 26.6003C36.68 26.2184 37.0129 25.2086 37.5466 23.571H40.776C40.9761 23.571 41.154 23.5932 41.3097 23.6377V23.6043C41.1056 23.5376 40.8499 23.5043 40.5425 23.5043H37.6133C37.5753 23.5043 37.5086 23.4657 37.4131 23.3885H37.3621ZM37.8958 25.1366L37.9448 25.17H38.8277C39.7721 25.17 40.2443 25.1196 40.2443 25.0189C40.3176 24.9522 40.3895 24.775 40.4601 24.4872V24.4205C40.4601 24.3093 40.3215 24.2537 40.0442 24.2537H38.2784C38.1764 24.2537 38.0985 24.3924 38.0449 24.6697C38.0004 24.7665 37.9507 24.9221 37.8958 25.1366ZM40.7093 24.2694V24.3872C40.7093 24.5363 40.6315 24.7246 40.4758 24.9522C40.2966 25.0569 40.2025 25.1294 40.1933 25.17C40.1057 25.3243 39.8728 25.4015 39.4948 25.4015H37.8958C37.8709 25.4015 37.8487 25.3963 37.8291 25.3858C37.8082 25.3963 37.7918 25.4015 37.78 25.4015V25.4349C37.8991 25.4571 38.0266 25.4682 38.1626 25.4682H39.1436C40.0409 25.4682 40.4909 25.3963 40.4935 25.2524C40.5615 25.2236 40.6393 25.0457 40.727 24.7187L40.7603 24.4696C40.7512 24.3361 40.7342 24.2694 40.7093 24.2694ZM42.7694 23.2041H45.9498C46.4717 23.2041 46.7876 23.3152 46.8975 23.5376C46.9315 23.637 46.9485 23.7037 46.9485 23.7377V23.8868C46.9485 24.1838 46.8039 24.6664 46.5149 25.3348C46.3187 25.6827 46.0525 25.9051 45.7163 26.0019C45.4992 26.0686 45.1938 26.1019 44.8001 26.1019H42.9362C42.8865 26.1019 42.7864 26.3681 42.636 26.9005C42.6098 26.9894 42.5601 27.0339 42.4869 27.0339H41.4529L41.4372 26.9672C41.4699 26.8469 41.6641 26.2478 42.0199 25.17C42.0605 25.136 42.0991 25.119 42.1357 25.119H44.7334C45.2003 25.119 45.4338 25.0634 45.4338 24.9522C45.5672 24.756 45.6339 24.5788 45.6339 24.4205V24.3695C45.6339 24.2479 45.4724 24.187 45.1493 24.187H42.4025C42.3803 24.187 42.3692 24.1759 42.3692 24.1537V24.1203C42.5366 23.5317 42.6366 23.2374 42.6693 23.2374C42.706 23.2152 42.7393 23.2041 42.7694 23.2041ZM42.7027 23.3041V23.3218C42.7027 23.3427 42.719 23.4147 42.7517 23.5376C42.7517 23.5742 42.7184 23.6854 42.6517 23.8712L42.685 23.8868H42.7027C42.7746 23.8868 42.8243 23.809 42.8518 23.6534C42.8727 23.5644 42.895 23.52 42.9185 23.52H46.1323C46.1964 23.52 46.2853 23.5258 46.3991 23.5376H46.4148V23.52C46.2853 23.4768 46.1526 23.4552 46.0165 23.4552H43.0029C42.944 23.4552 42.8492 23.4048 42.7184 23.3041H42.7027ZM45.8831 24.2361V24.4205C45.8831 24.5735 45.7667 24.7678 45.5339 25.0032C45.4554 25.0032 45.3717 25.0811 45.2827 25.2367C45.1859 25.3243 44.8531 25.3682 44.2841 25.3682H42.3535C42.3195 25.3682 42.2357 25.3185 42.1023 25.219H42.0866V25.2524C42.0866 25.2943 42.103 25.361 42.1357 25.4525C41.8702 26.2805 41.7374 26.7076 41.7374 26.7337L41.7707 26.7514C41.8518 26.7514 41.9238 26.5957 41.9866 26.2844C42.001 26.2818 42.0951 25.9986 42.2691 25.4349H44.1507C45.15 25.4349 45.6496 25.3688 45.6496 25.2367C45.838 25.013 45.9322 24.7351 45.9322 24.4029C45.9322 24.3898 45.9269 24.3342 45.9165 24.2361H45.8831ZM51.208 23.2551C51.862 23.3035 52.189 23.3977 52.189 23.5376C52.2426 23.5664 52.276 23.6828 52.289 23.8868C52.289 24.1785 52.1563 24.6004 51.8908 25.1523C51.7547 25.3773 51.5546 25.5271 51.2904 25.6016V25.6193C51.501 25.7056 51.6063 25.8665 51.6063 26.1019C51.6573 26.2929 51.7129 26.6199 51.773 27.0829L51.724 27.1163H50.482C50.4245 27.1163 50.3715 26.8881 50.3231 26.4316C50.31 26.2995 50.2937 26.2229 50.2741 26.202C50.1747 26.168 50.1086 26.151 50.0759 26.151H48.1276C48.0452 26.151 47.9896 26.2347 47.9609 26.4021C47.817 26.8612 47.728 27.0941 47.694 27.1006L47.6116 27.1163H46.611C46.5953 27.1163 46.579 27.1 46.562 27.0673V27.0516C46.562 27.0228 46.9616 25.7795 47.7607 23.3218L47.8275 23.2708H50.8077C50.9176 23.2708 51.051 23.2655 51.208 23.2551ZM47.8431 23.3885V23.4042C47.8431 23.4683 47.8602 23.5239 47.8942 23.571C47.8942 23.5958 47.5443 24.6723 46.8445 26.8004L46.8778 26.8181H46.8955C46.9844 26.8181 47.0289 26.7455 47.0289 26.6003C47.161 26.2184 47.4939 25.2086 48.0276 23.571H51.257C51.4572 23.571 51.635 23.5932 51.7907 23.6377V23.6043C51.5866 23.5376 51.3309 23.5043 51.0236 23.5043H48.0943C48.0564 23.5043 47.9896 23.4657 47.8942 23.3885H47.8431ZM48.3768 25.1366L48.4259 25.17H49.3088C50.2531 25.17 50.7253 25.1196 50.7253 25.0189C50.7986 24.9522 50.8705 24.775 50.9411 24.4872V24.4205C50.9411 24.3093 50.8025 24.2537 50.5252 24.2537H48.7594C48.6574 24.2537 48.5796 24.3924 48.5259 24.6697C48.4815 24.7665 48.4317 24.9221 48.3768 25.1366ZM51.1903 24.2694V24.3872C51.1903 24.5363 51.1125 24.7246 50.9568 24.9522C50.7776 25.0569 50.6835 25.1294 50.6743 25.17C50.5867 25.3243 50.3539 25.4015 49.9758 25.4015H48.3768C48.352 25.4015 48.3297 25.3963 48.3101 25.3858C48.2892 25.3963 48.2728 25.4015 48.2611 25.4015V25.4349C48.3801 25.4571 48.5076 25.4682 48.6436 25.4682H49.6246C50.5219 25.4682 50.9719 25.3963 50.9745 25.2524C51.0425 25.2236 51.1203 25.0457 51.208 24.7187L51.2413 24.4696C51.2322 24.3361 51.2152 24.2694 51.1903 24.2694ZM53.2504 23.1884H54.3315C54.3485 23.1884 54.3655 23.2106 54.3825 23.2551L53.1661 26.9848C53.1255 27.0175 53.0869 27.0339 53.0503 27.0339H51.9673C51.9398 27.0339 51.9235 27.0117 51.9182 26.9672C52.584 24.9045 52.9888 23.6612 53.1327 23.2374C53.1746 23.2047 53.2138 23.1884 53.2504 23.1884ZM53.1994 23.2884V23.3041C53.1994 23.363 53.2164 23.4349 53.2504 23.52C52.5624 25.6324 52.2184 26.7036 52.2184 26.7337H52.3008C52.3387 26.7337 52.4055 26.5565 52.5009 26.202C52.5232 26.1549 52.8175 25.2557 53.3838 23.5043L53.4996 23.4866H53.9489C53.9711 23.4866 53.9823 23.4761 53.9823 23.4552V23.4375H53.5506C53.442 23.4375 53.342 23.3931 53.2504 23.3041C53.2282 23.2937 53.2112 23.2884 53.1994 23.2884ZM59.3464 23.2708C59.3621 23.2708 59.3784 23.293 59.3954 23.3375C59.2267 23.8698 59.1325 24.136 59.1129 24.136C59.0763 24.1583 59.0429 24.1694 59.0128 24.1694H56.4818C55.9717 24.1694 55.7167 24.2197 55.7167 24.3204C55.65 24.3688 55.6166 24.4408 55.6166 24.5363C55.6166 24.6579 55.8161 24.7187 56.215 24.7187C57.7022 24.7671 58.4458 24.8227 58.4458 24.8855C58.6682 24.9967 58.7793 25.1576 58.7793 25.3682C58.7793 25.4558 58.591 26.083 58.2143 27.2497C58.0704 27.7455 57.8925 28.0953 57.6806 28.2994C57.4321 28.5218 57.077 28.6329 56.6153 28.6329C56.3249 28.6552 55.9142 28.6663 55.3831 28.6663H53.3583C53.3426 28.6663 53.3263 28.644 53.3093 28.5996C53.4754 28.0711 53.5755 27.7932 53.6095 27.7657L53.6919 27.75H55.9325C56.576 27.75 56.8978 27.7056 56.8978 27.6166C56.9553 27.6166 57.1496 27.0561 57.4805 25.9352V25.8685C57.4805 25.7691 57.3916 25.7194 57.2137 25.7194C55.4492 25.667 54.5669 25.5944 54.5669 25.5016C54.4113 25.4113 54.3335 25.2786 54.3335 25.1033V25.0699C54.3897 24.5637 54.5565 24.1197 54.8338 23.7377C55.0627 23.4264 55.5734 23.2708 56.3661 23.2708H59.3464ZM54.6003 24.8855V25.0189L54.6179 25.1033H54.6336C54.7487 24.6154 54.854 24.3041 54.9495 24.1694C55.1719 23.7809 55.5774 23.5867 56.166 23.5867C56.3085 23.5762 56.5472 23.571 56.8821 23.571H58.9638C58.9847 23.571 58.9952 23.5598 58.9952 23.5376V23.52H56.166C55.495 23.52 55.1228 23.5644 55.0496 23.6534C54.8547 23.843 54.7049 24.2537 54.6003 24.8855ZM55.5832 24.9189V24.9522C55.5832 24.9967 56.321 25.0412 57.7964 25.0856C57.7964 25.0922 57.9468 25.1092 58.2476 25.1366C58.2476 25.066 57.8199 25.0215 56.9645 25.0032C56.2229 24.9771 55.7624 24.9489 55.5832 24.9189ZM57.7316 25.7351V25.8528C57.7316 25.9247 57.6538 26.1687 57.4982 26.5846C57.3085 27.2948 57.1306 27.65 56.9645 27.65C56.9331 27.6617 56.8612 27.7448 56.7487 27.8991C56.5917 27.9658 56.1862 27.9992 55.5322 27.9992C54.9698 27.9887 54.5283 27.9835 54.2079 27.9835C54.0535 27.994 53.9541 27.9992 53.9097 27.9992C53.89 27.9992 53.8122 27.9547 53.6762 27.8658H53.6428C53.6428 27.8867 53.6592 27.9593 53.6919 28.0836C53.6474 28.2118 53.6252 28.3059 53.6252 28.3661C53.6369 28.3661 53.6428 28.3713 53.6428 28.3818C53.7213 28.3818 53.771 28.3099 53.7919 28.166C53.7919 28.0888 53.8416 28.0502 53.941 28.0502H56.0149C56.7709 28.0502 57.1489 27.9887 57.1489 27.8658C57.2431 27.7664 57.4092 27.3112 57.6473 26.5002C57.7362 26.291 57.7807 26.0856 57.7807 25.8842L57.765 25.7351H57.7316ZM60.3666 23.2551H64.5123C64.5346 23.2577 64.5457 23.2688 64.5457 23.2884C64.5234 23.4192 64.4345 23.7018 64.2788 24.136C64.2383 24.17 64.1991 24.187 64.1611 24.187H60.0998C60.0723 24.187 60.0553 24.1648 60.0488 24.1203C60.2097 23.5435 60.3156 23.2551 60.3666 23.2551ZM60.3666 23.3551C60.3771 23.4192 60.3993 23.4912 60.4333 23.571C60.4333 23.5893 60.4 23.6893 60.3333 23.8712L60.3666 23.8868H60.3823C60.4542 23.8868 60.504 23.809 60.5314 23.6534C60.5537 23.6089 60.5648 23.5755 60.5648 23.5533H64.0787L64.1611 23.5376V23.52C64.1611 23.4977 64.15 23.4866 64.1278 23.4866H60.6315C60.5922 23.4866 60.5203 23.4428 60.4157 23.3551H60.3666ZM64.012 24.7187C64.0342 24.7227 64.0454 24.7338 64.0454 24.7521V24.7697C63.9067 25.2916 63.8125 25.5526 63.7628 25.5526C63.7432 25.5631 63.721 25.5683 63.6961 25.5683H59.6505C59.6348 25.5683 59.6178 25.5519 59.5995 25.5192C59.7355 24.9856 59.8356 24.7187 59.8997 24.7187H64.012ZM59.8997 24.8188V24.8365C59.8997 24.8692 59.916 24.9411 59.9487 25.0523C59.9487 25.0719 59.9271 25.1386 59.884 25.2524L59.9154 25.2681H59.9821C60.0121 25.2681 60.0455 25.185 60.0821 25.0189H63.5784L63.6628 25.0032V24.9856C63.6628 24.9633 63.6517 24.9522 63.6294 24.9522H60.1665C60.1351 24.9522 60.0573 24.9077 59.933 24.8188H59.8997ZM59.4974 26.151H63.5294C63.5843 26.151 63.6176 26.1732 63.6294 26.2177C63.4594 26.7723 63.3593 27.0555 63.3292 27.0673C63.3096 27.0777 63.2874 27.0829 63.2625 27.0829H59.1482C59.126 27.0829 59.1149 27.0666 59.1149 27.0339C59.2757 26.4571 59.381 26.1687 59.4307 26.1687C59.4504 26.1569 59.4726 26.151 59.4974 26.151ZM59.4484 26.2511V26.3021C59.4484 26.3387 59.4647 26.3995 59.4974 26.4845C59.4974 26.5028 59.4641 26.6029 59.3974 26.7847C59.4196 26.7952 59.4366 26.8004 59.4484 26.8004C59.5203 26.8004 59.57 26.7226 59.5975 26.5669C59.6197 26.5225 59.6309 26.4898 59.6309 26.4688H63.1134L63.2292 26.4512V26.4021H59.7152C59.6878 26.4021 59.5988 26.3518 59.4484 26.2511Z" fill="url(#paint9_linear_104_53)"/>
<path d="M65.8492 21.6428L66.988 22.7246L68.1125 24.632M68.1125 24.632L66.3189 26.5821M68.1125 24.632L66.3189 24.2334M68.1125 24.632V22.7246M66.3189 26.5821L65.8492 28.3898M66.3189 26.5821L67.173 27.7208M66.3189 26.5821H67.9844" stroke="url(#paint10_linear_104_53)" stroke-width="0.1"/>
<ellipse cx="0.41915" cy="0.651629" rx="0.41915" ry="0.651629" transform="matrix(-0.354432 0.935082 0.935082 0.354432 65.4243 20.9526)" fill="url(#paint11_linear_104_53)"/>
<ellipse cx="0.602297" cy="0.902628" rx="0.602297" ry="0.902628" transform="matrix(-0.999997 0.00234138 0.00234138 0.999997 68.656 23.7088)" fill="url(#paint12_linear_104_53)"/>
<ellipse cx="0.669832" cy="0.697653" rx="0.669832" ry="0.697653" transform="matrix(-0.999997 0.00234138 0.00234138 0.999997 66.967 23.5614)" fill="url(#paint13_linear_104_53)"/>
<ellipse cx="0.594625" cy="0.779214" rx="0.594625" ry="0.779214" transform="matrix(-0.748407 0.66324 0.66324 0.748407 66.8477 21.7867)" fill="url(#paint14_linear_104_53)"/>
<ellipse cx="0.992258" cy="0.845426" rx="0.992258" ry="0.845426" transform="matrix(-0.748407 0.66324 0.66324 0.748407 66.4916 25.245)" fill="url(#paint15_linear_104_53)"/>
<ellipse cx="0.26506" cy="0.574591" rx="0.26506" ry="0.574591" transform="matrix(-0.91179 0.410658 0.410658 0.91179 68.0621 22.1315)" fill="url(#paint16_linear_104_53)"/>
<ellipse cx="0.313097" cy="0.574591" rx="0.313097" ry="0.574591" transform="matrix(-0.867809 -0.496897 -0.496897 0.867809 68.5463 26.2269)" fill="url(#paint17_linear_104_53)"/>
<ellipse cx="0.313097" cy="0.574591" rx="0.313097" ry="0.574591" transform="matrix(-0.675422 -0.737431 -0.737431 0.675422 67.8157 27.6042)" fill="url(#paint18_linear_104_53)"/>
<ellipse cx="0.345752" cy="0.616275" rx="0.345752" ry="0.616275" transform="matrix(0.290644 0.956832 0.956832 -0.290644 65.1295 28.1547)" fill="url(#paint19_linear_104_53)"/>
<defs>
<linearGradient id="paint0_linear_104_53" x1="9.00635" y1="2.38448" x2="9.00635" y2="28.3845" gradientUnits="userSpaceOnUse">
<stop stop-color="#FFA800"/>
<stop offset="1" stop-color="#FFCE4F"/>
</linearGradient>
<linearGradient id="paint1_linear_104_53" x1="56.1538" y1="9.38448" x2="63.1339" y2="10.0396" gradientUnits="userSpaceOnUse">
<stop stop-color="white"/>
<stop offset="1" stop-color="#ECECEC"/>
</linearGradient>
<linearGradient id="paint2_linear_104_53" x1="48.5969" y1="9.38448" x2="54.3105" y2="9.82214" gradientUnits="userSpaceOnUse">
<stop stop-color="white"/>
<stop offset="1" stop-color="#ECECEC"/>
</linearGradient>
<linearGradient id="paint3_linear_104_53" x1="39.7632" y1="9.38448" x2="46.7433" y2="10.0396" gradientUnits="userSpaceOnUse">
<stop stop-color="white"/>
<stop offset="1" stop-color="#ECECEC"/>
</linearGradient>
<linearGradient id="paint4_linear_104_53" x1="30.982" y1="9.38448" x2="37.9621" y2="10.0396" gradientUnits="userSpaceOnUse">
<stop stop-color="white"/>
<stop offset="1" stop-color="#ECECEC"/>
</linearGradient>
<linearGradient id="paint5_linear_104_53" x1="36.7921" y1="4.56869" x2="31.657" y2="22.2634" gradientUnits="userSpaceOnUse">
<stop stop-color="#DDFF0B"/>
<stop offset="1" stop-color="#ABE700"/>
</linearGradient>
<linearGradient id="paint6_linear_104_53" x1="19.5063" y1="2.38448" x2="19.5063" y2="28.3845" gradientUnits="userSpaceOnUse">
<stop stop-color="white"/>
<stop offset="1" stop-color="#EAEAEA"/>
</linearGradient>
<linearGradient id="paint7_linear_104_53" x1="19.0063" y1="9.38448" x2="19.0063" y2="18.3845" gradientUnits="userSpaceOnUse">
<stop stop-color="white"/>
<stop offset="1" stop-color="#EEEEEE"/>
</linearGradient>
<radialGradient id="paint8_radial_104_53" cx="0" cy="0" r="1" gradientUnits="userSpaceOnUse" gradientTransform="translate(19.0263 13.7845) rotate(90) scale(5)">
<stop offset="0.367725" stop-color="#00B3FF"/>
<stop offset="0.752725" stop-color="#0041A3"/>
</radialGradient>
<linearGradient id="paint9_linear_104_53" x1="17.0063" y1="20.8845" x2="65.0063" y2="28.3845" gradientUnits="userSpaceOnUse">
<stop stop-color="#6CC1FF"/>
<stop offset="1" stop-color="#0B98FF"/>
</linearGradient>
<linearGradient id="paint10_linear_104_53" x1="68.1125" y1="25.0163" x2="65.8492" y2="25.0163" gradientUnits="userSpaceOnUse">
<stop stop-color="#69C0FF"/>
<stop offset="1" stop-color="#0E9AFF"/>
</linearGradient>
<linearGradient id="paint11_linear_104_53" x1="0.105309" y1="-0.277832" x2="0.732991" y2="1.58109" gradientUnits="userSpaceOnUse">
<stop stop-color="#0E99FF"/>
<stop offset="1" stop-color="#02ACE3"/>
</linearGradient>
<linearGradient id="paint12_linear_104_53" x1="-0.00211009" y1="0.904043" x2="2.03281" y2="0.899278" gradientUnits="userSpaceOnUse">
<stop stop-color="#65BEFF"/>
<stop offset="1" stop-color="#0E9AFF"/>
</linearGradient>
<linearGradient id="paint13_linear_104_53" x1="-0.00131904" y1="0.83195" x2="1.34129" y2="0.696081" gradientUnits="userSpaceOnUse">
<stop stop-color="#66BFFF"/>
<stop offset="1" stop-color="#0E99FF"/>
</linearGradient>
<linearGradient id="paint14_linear_104_53" x1="0.176865" y1="1.14943" x2="1.29887" y2="-0.233312" gradientUnits="userSpaceOnUse">
<stop stop-color="#65BEFF"/>
<stop offset="1" stop-color="#0E9AFF"/>
</linearGradient>
<linearGradient id="paint15_linear_104_53" x1="0.992258" y1="1.69085" x2="0.992258" y2="0" gradientUnits="userSpaceOnUse">
<stop stop-color="#64BEFF"/>
<stop offset="1" stop-color="#0E9AFF"/>
</linearGradient>
<linearGradient id="paint16_linear_104_53" x1="0.505449" y1="0.466323" x2="-0.170446" y2="0.770738" gradientUnits="userSpaceOnUse">
<stop stop-color="#0D99FF"/>
<stop offset="1" stop-color="#69C0FF"/>
</linearGradient>
<linearGradient id="paint17_linear_104_53" x1="0.0188796" y1="0.406126" x2="0.853944" y2="0.751426" gradientUnits="userSpaceOnUse">
<stop stop-color="#69C0FF"/>
<stop offset="1" stop-color="#0E9AFF"/>
</linearGradient>
<linearGradient id="paint18_linear_104_53" x1="1.35965" y1="1.39982" x2="0.111439" y2="-0.298943" gradientUnits="userSpaceOnUse">
<stop stop-color="#0E9AFF"/>
<stop offset="1" stop-color="#69C0FF"/>
</linearGradient>
<linearGradient id="paint19_linear_104_53" x1="0.593184" y1="0.857775" x2="0.0983208" y2="0.374775" gradientUnits="userSpaceOnUse">
<stop stop-color="#65BEFF"/>
<stop offset="1" stop-color="#0E99FF"/>
</linearGradient>
</defs>
</svg>
