<svg width="122" height="44" viewBox="0 0 122 44" fill="none" xmlns="http://www.w3.org/2000/svg">
<g clip-path="url(#clip0_104_27)">
<path d="M112.773 13.6051H107.736V18.642H105.218H103.539V23.679H107.736V29.5554H112.773V25.358V23.679H117.81V18.642H112.773V13.6051Z" fill="url(#paint0_linear_104_27)"/>
<path d="M107.736 13.6051L105.218 15.2841V18.642M107.736 13.6051H112.773V18.642H117.81V23.679M107.736 13.6051V18.642H105.218M117.81 23.679L115.292 25.358H112.773M117.81 23.679H112.773V25.358M112.773 29.5554H107.736M112.773 29.5554L111.094 30.3949H106.057M112.773 29.5554V25.358M107.736 29.5554V23.679H103.539M107.736 29.5554L106.057 30.3949M103.539 23.679V18.642M103.539 23.679L101.02 25.358M103.539 18.642H105.218M103.539 18.642L101.02 20.321V25.358M101.02 25.358H106.057V30.3949" stroke="url(#paint1_linear_104_27)" stroke-width="0.5"/>
<path d="M3.01028 19.5248C3.01028 18.2734 3.24492 17.0916 3.71419 15.9792C4.20085 14.8669 4.85262 13.9022 5.66951 13.0854C6.50377 12.2511 7.47708 11.5993 8.58944 11.13C9.70179 10.6434 10.8837 10.4001 12.1351 10.4001C13.4038 10.4001 14.5857 10.6347 15.6807 11.104V14.7539C15.2983 14.4237 14.8638 14.1629 14.3772 13.9718C13.9079 13.7806 13.3691 13.685 12.7608 13.685C11.9786 13.685 11.24 13.8414 10.5447 14.1543C9.86691 14.4671 9.26728 14.8929 8.74586 15.4317C8.22445 15.9531 7.816 16.5702 7.52053 17.2828C7.22506 17.9954 7.07733 18.7427 7.07733 19.5248C7.07733 20.1679 7.18161 20.7936 7.39018 21.4019C7.61613 21.9929 7.9116 22.5317 8.27659 23.0183C8.65896 23.4876 9.11085 23.896 9.63227 24.2437C10.1537 24.5913 10.7186 24.8433 11.3269 24.9997C11.3964 25.0171 11.4833 25.0345 11.5876 25.0519C11.7092 25.0692 11.8309 25.0866 11.9526 25.104C12.0742 25.1214 12.1959 25.1388 12.3176 25.1561C12.4392 25.1561 12.5348 25.1648 12.6043 25.1822V19.1859H16.6453V28.6496H11.744C10.5274 28.5975 9.38894 28.3281 8.32873 27.8414C7.26852 27.3374 6.33866 26.6769 5.53915 25.8601C4.75703 25.0258 4.14002 24.0699 3.68812 22.9923C3.23623 21.8973 3.01028 20.7415 3.01028 19.5248Z" fill="url(#paint2_linear_104_27)"/>
<path d="M90.432 14.1506V18.7912H92.5437C93.3606 18.7912 94.0124 18.6087 94.499 18.2437C95.003 17.8787 95.2551 17.2878 95.2551 16.4709C95.2551 15.654 95.003 15.0631 94.499 14.6981C94.0124 14.3331 93.3606 14.1506 92.5437 14.1506H90.432ZM99.296 16.7577C99.296 17.5398 99.1831 18.2089 98.9571 18.7651C98.7312 19.3213 98.4444 19.7906 98.0968 20.1729C97.7492 20.5379 97.3581 20.8334 96.9236 21.0593C96.5065 21.2853 96.1067 21.4591 95.7243 21.5808C95.342 21.7024 95.003 21.7806 94.7076 21.8154C94.4121 21.8502 94.2122 21.8675 94.108 21.8675H90.432V29.3499H86.391V11.1003H94.108C94.8727 11.1003 95.5679 11.2393 96.1936 11.5174C96.8367 11.7955 97.3842 12.1866 97.8361 12.6906C98.3054 13.1947 98.6617 13.7943 98.905 14.4895C99.1657 15.1673 99.296 15.9234 99.296 16.7577Z" fill="url(#paint3_linear_104_27)"/>
<path d="M74.2213 11.1003H84.7539V14.1506H78.2622V17.7484H83.9717V20.7986H78.2622V26.2735H84.7539V29.3499H74.2213V11.1003Z" fill="url(#paint4_linear_104_27)"/>
<path d="M63.7247 14.1506V18.7912H65.8364C66.6533 18.7912 67.3051 18.6087 67.7917 18.2437C68.2958 17.8787 68.5478 17.2878 68.5478 16.4709C68.5478 15.654 68.2958 15.0631 67.7917 14.6981C67.3051 14.3331 66.6533 14.1506 65.8364 14.1506H63.7247ZM72.5888 16.7577C72.5888 17.6267 72.4497 18.3654 72.1716 18.9737C71.8935 19.582 71.5372 20.086 71.1027 20.4858C70.6856 20.8682 70.225 21.1636 69.721 21.3722C69.2169 21.5634 68.7303 21.685 68.261 21.7372C68.1393 21.7546 67.9742 21.7719 67.7657 21.7893C67.5745 21.7893 67.4267 21.798 67.3225 21.8154L72.5888 29.3499H68.9389L63.7247 21.8675V29.3499H59.6837V11.1003H67.4007C68.1654 11.1003 68.8606 11.2393 69.4863 11.5174C70.1294 11.7955 70.6769 12.1866 71.1288 12.6906C71.5981 13.1947 71.9544 13.7943 72.1977 14.4895C72.4584 15.1673 72.5888 15.9234 72.5888 16.7577Z" fill="url(#paint5_linear_104_27)"/>
<path d="M49.4163 14.1506V18.7912H51.528C52.3449 18.7912 52.9967 18.6087 53.4833 18.2437C53.9874 17.8787 54.2394 17.2878 54.2394 16.4709C54.2394 15.654 53.9874 15.0631 53.4833 14.6981C52.9967 14.3331 52.3449 14.1506 51.528 14.1506H49.4163ZM58.2804 16.7577C58.2804 17.5398 58.1674 18.2089 57.9414 18.7651C57.7155 19.3213 57.4287 19.7906 57.0811 20.1729C56.7335 20.5379 56.3424 20.8334 55.9079 21.0593C55.4908 21.2853 55.091 21.4591 54.7087 21.5808C54.3263 21.7024 53.9874 21.7806 53.6919 21.8154C53.3964 21.8502 53.1965 21.8675 53.0923 21.8675H49.4163V29.3499H45.3753V16.4709L53.0923 11.1003C53.857 11.1003 54.5522 11.2393 55.1779 11.5174C55.821 11.7955 56.3685 12.1866 56.8204 12.6906C57.2897 13.1947 57.646 13.7943 57.8893 14.4895C58.15 15.1673 58.2804 15.9234 58.2804 16.7577Z" fill="url(#paint6_linear_104_27)"/>
<path d="M32.3465 19.5733L38.8642 26.9057C38.8642 26.9057 40.3695 21.2198 42.9378 18.7586C44.7898 16.9838 46.4376 18.1244 48.6408 15.4997C50.8439 12.8751 53.529 8.16733 54.3437 4.09377" stroke="url(#paint7_linear_104_27)" stroke-width="3.25885" stroke-linecap="round"/>
<path d="M17.6751 19.5248C17.6751 18.2734 17.9097 17.0916 18.379 15.9792C18.8656 14.8669 19.5174 13.9022 20.3343 13.0854C21.1686 12.2511 22.1419 11.5993 23.2542 11.13C24.3666 10.6434 25.5485 10.4001 26.7999 10.4001C28.0513 10.4001 29.2331 10.6434 30.3455 11.13C31.4578 11.5993 32.4225 12.2511 33.2394 13.0854C34.0736 13.9022 34.7254 14.8669 35.1947 15.9792C35.6813 17.0916 35.9246 18.2734 35.9246 19.5248C35.9246 20.7762 35.6813 21.9581 35.1947 23.0705C34.7254 24.1828 34.0736 25.1561 33.2394 25.9904C32.4225 26.8073 31.4578 27.4591 30.3455 27.9457C29.2331 28.415 28.0513 28.6496 26.7999 28.6496C25.5485 28.6496 24.3666 28.415 23.2542 27.9457C22.1419 27.4591 21.1686 26.8073 20.3343 25.9904C19.5174 25.1561 18.8656 24.1828 18.379 23.0705C17.9097 21.9581 17.6751 20.7762 17.6751 19.5248ZM21.7161 19.5248C21.7161 20.2201 21.8464 20.8805 22.1071 21.5062C22.3852 22.1319 22.7502 22.6707 23.2021 23.1226C23.654 23.5745 24.1928 23.9395 24.8185 24.2176C25.4442 24.4783 26.1046 24.6087 26.7999 24.6087C27.5125 24.6087 28.1729 24.4783 28.7812 24.2176C29.4069 23.9395 29.9457 23.5745 30.3976 23.1226C30.8495 22.6707 31.2058 22.1319 31.4665 21.5062C31.7446 20.8805 31.8837 20.2201 31.8837 19.5248C31.8837 18.8122 31.7446 18.1518 31.4665 17.5435C31.2058 16.9178 30.8495 16.379 30.3976 15.9271C29.9457 15.4752 29.4069 15.1189 28.7812 14.8582C28.1729 14.5801 27.5125 14.441 26.7999 14.441C26.1046 14.441 25.4442 14.5801 24.8185 14.8582C24.1928 15.1189 23.654 15.4752 23.2021 15.9271C22.7502 16.379 22.3852 16.9178 22.1071 17.5435C21.8464 18.1518 21.7161 18.8122 21.7161 19.5248Z" fill="url(#paint8_linear_104_27)"/>
<ellipse cx="26.6435" cy="20.388" rx="8.14713" ry="7.33242" fill="url(#paint9_linear_104_27)"/>
<path fill-rule="evenodd" clip-rule="evenodd" d="M28.3964 19.6533C28.52 19.668 28.6444 19.6828 28.7683 19.698C29.0642 19.7343 29.3599 19.7718 29.6563 19.806C29.8072 19.8237 29.9578 19.8505 30.1114 19.8397C30.3676 19.821 30.6244 19.8092 30.8801 19.794C31.2381 19.7728 31.5958 19.7505 31.9538 19.7293C32.2421 19.7128 32.5311 19.6978 32.8194 19.6813C33.2949 19.6538 33.7704 19.6256 34.2459 19.5981C34.4093 19.5881 34.5727 19.5778 34.7361 19.5681C34.6697 19.5573 34.6032 19.5513 34.5367 19.5476C34.3311 19.5358 34.1252 19.5254 33.9201 19.5134C33.553 19.4921 33.1862 19.4691 32.8189 19.4476C32.5395 19.4316 32.2607 19.4166 31.981 19.4006C31.5882 19.3782 31.1961 19.3549 30.8036 19.3319C30.61 19.3204 30.4159 19.3067 30.2221 19.2964C30.1028 19.2904 29.9828 19.2772 29.8624 19.2954C29.7299 19.3149 29.5966 19.3299 29.4637 19.3462C29.1628 19.3829 28.8623 19.4201 28.562 19.4564C28.4943 19.4649 28.426 19.4709 28.3566 19.4779C28.3456 19.3869 28.3362 19.3062 28.3259 19.2202C28.3537 19.215 28.3782 19.209 28.4025 19.2052C28.4827 19.1935 28.5625 19.1827 28.6427 19.171C28.9879 19.1205 29.3336 19.071 29.6788 19.0188C29.7996 19.0005 29.9213 18.9888 30.0388 18.9486C30.5118 18.7869 30.9861 18.6284 31.4604 18.4692C32.4121 18.1489 33.3646 17.829 34.3168 17.5086C34.3465 17.4986 34.3762 17.4879 34.4056 17.4774C34.4047 17.4729 34.4034 17.4686 34.4022 17.4639C34.3281 17.4794 34.254 17.4946 34.1799 17.5101C33.4333 17.668 32.6867 17.8257 31.9403 17.9837C31.3249 18.1139 30.7093 18.2428 30.0945 18.3743C29.9708 18.401 29.8442 18.4165 29.725 18.4655C29.2664 18.6539 28.8068 18.8406 28.3478 19.0275C28.3274 19.0363 28.3063 19.043 28.2832 19.0508C28.2496 18.9676 28.2185 18.8906 28.1861 18.8104C28.2089 18.7991 28.2271 18.7896 28.2457 18.7816C28.7026 18.5827 29.1599 18.3838 29.6163 18.1843C29.6543 18.1678 29.6921 18.1486 29.7264 18.1256C31.0087 17.2694 32.2902 16.413 33.5722 15.5563C33.5928 15.5428 33.6124 15.5286 33.633 15.5148C33.6055 15.5156 33.5832 15.5258 33.5614 15.5371C32.1947 16.2378 30.8279 16.9386 29.4615 17.64C29.4224 17.6603 29.3849 17.6843 29.3501 17.711C28.9536 18.0129 28.5578 18.3153 28.1618 18.6174C28.1419 18.6327 28.1211 18.6464 28.0992 18.6624C28.045 18.5912 27.994 18.5255 27.9407 18.4565C27.9623 18.4385 27.9795 18.4235 27.9972 18.409C28.388 18.0961 28.7791 17.7832 29.1697 17.4699C29.2001 17.4454 29.2301 17.4184 29.2561 17.3886C29.8126 16.7546 30.3683 16.1199 30.924 15.4853C31.3892 14.9543 31.8542 14.4235 32.3191 13.8924C32.3324 13.8772 32.3446 13.8612 32.3577 13.8454C32.3319 13.8514 32.3159 13.8652 32.301 13.8792C31.1581 14.917 30.0155 15.9549 28.8728 16.9933C28.8454 17.0183 28.8201 17.046 28.7975 17.0758C28.4881 17.4754 28.1797 17.8757 27.871 18.2756C27.8556 18.2958 27.8392 18.3148 27.822 18.336C27.753 18.2806 27.6885 18.2283 27.6205 18.1738C27.637 18.1501 27.6512 18.1289 27.6662 18.1086C27.9601 17.7088 28.2545 17.3094 28.5475 16.9091C28.5818 16.8621 28.612 16.8111 28.638 16.7589C29.3204 15.3799 30.0025 14.0004 30.6843 12.6209C30.6944 12.6006 30.7022 12.5797 30.7115 12.5589C30.688 12.5737 30.674 12.5937 30.6608 12.6144C29.8263 13.9102 28.9916 15.2057 28.1574 16.5017C28.1314 16.5427 28.1078 16.5867 28.0892 16.6317C27.8944 17.0925 27.7013 17.5533 27.5074 18.0144C27.4979 18.0379 27.4866 18.0606 27.4748 18.0864C27.3951 18.0524 27.3187 18.0199 27.2388 17.9862C27.2471 17.9609 27.2542 17.9389 27.2626 17.9177C27.4473 17.4479 27.6326 16.978 27.8171 16.5082C27.8306 16.4735 27.8431 16.4375 27.8507 16.401C27.981 15.7652 28.1105 15.1292 28.2403 14.4935C28.4197 13.6135 28.5995 12.7333 28.7789 11.8532C28.786 11.8174 28.7911 11.7814 28.7975 11.7457C28.7644 11.8094 28.7423 11.8759 28.7207 11.9424C28.2911 13.2677 27.8612 14.5924 27.4323 15.9179C27.3705 16.1096 27.3028 16.2988 27.278 16.5025C27.2316 16.8831 27.1728 17.2622 27.1193 17.6418C27.105 17.7413 27.0906 17.8407 27.0756 17.9437C26.9875 17.9327 26.9065 17.9224 26.8197 17.9117C26.8239 17.8705 26.8261 17.8332 26.8305 17.7962C26.8472 17.6515 26.8648 17.5066 26.882 17.3616C26.9122 17.107 26.9431 16.8523 26.9723 16.5977C26.9912 16.4317 27.0204 16.2668 27.0044 16.0981C26.9961 16.0091 26.9939 15.9197 26.989 15.83C26.9625 15.3551 26.9348 14.8801 26.9083 14.4052C26.8852 13.9984 26.8624 13.5918 26.8396 13.1849C26.8163 12.7688 26.7932 12.3525 26.7696 11.9364C26.7601 11.7647 26.75 11.5933 26.7399 11.4216C26.7372 11.4208 26.7348 11.4198 26.7328 11.4191C26.7233 11.574 26.7134 11.729 26.7049 11.8839C26.6931 12.0931 26.6828 12.3025 26.6712 12.5117C26.6501 12.8785 26.6286 13.2454 26.6079 13.612C26.5959 13.8214 26.5861 14.0306 26.5743 14.24C26.5525 14.6279 26.5304 15.0158 26.5078 15.4039C26.4961 15.6103 26.4826 15.8167 26.4723 16.0234C26.4661 16.1408 26.4561 16.2578 26.4715 16.3758C26.4953 16.5529 26.515 16.7309 26.5358 16.9086C26.5667 17.1702 26.5984 17.4319 26.6288 17.6938C26.6369 17.7652 26.6438 17.8372 26.6514 17.9119C26.5638 17.9229 26.4843 17.9329 26.3989 17.9434C26.3935 17.9174 26.3876 17.893 26.3837 17.8682C26.3763 17.817 26.3702 17.7652 26.3631 17.7143C26.314 17.3649 26.2649 17.0153 26.2149 16.6659C26.1874 16.4705 26.158 16.277 26.0961 16.0871C25.628 14.6559 25.166 13.2229 24.7013 11.7904C24.6922 11.7625 24.6814 11.735 24.6689 11.701C24.6669 11.7135 24.665 11.7182 24.6662 11.7225C24.7727 12.2478 24.8799 12.7728 24.9874 13.2981C25.1846 14.2658 25.3814 15.2334 25.5799 16.2008C25.6032 16.3133 25.6199 16.427 25.6636 16.5355C25.8466 16.9958 26.0267 17.4571 26.2083 17.9182C26.2166 17.9394 26.224 17.9612 26.2326 17.9864C26.1531 18.0202 26.077 18.0521 25.9963 18.0866C25.985 18.0611 25.9739 18.0381 25.9644 18.0149C25.771 17.5563 25.5789 17.0972 25.3853 16.6389C25.3645 16.5894 25.3395 16.5409 25.3105 16.496C24.4728 15.1939 23.6342 13.8924 22.7953 12.5912C22.7843 12.5742 22.772 12.5582 22.76 12.5414C22.7629 12.5709 22.7745 12.5954 22.7863 12.6196C23.4715 14.0051 24.1566 15.3909 24.8426 16.7764C24.8652 16.8223 24.8922 16.8666 24.9226 16.9081C25.2185 17.3119 25.5156 17.715 25.8123 18.1184C25.8257 18.1364 25.8373 18.1554 25.85 18.1746C25.7801 18.2306 25.7171 18.2811 25.6479 18.336C25.6236 18.3055 25.6005 18.2768 25.5782 18.2476C25.2766 17.857 24.9751 17.4659 24.6733 17.0755C24.6493 17.0443 24.6218 17.0148 24.5931 16.9885C23.8474 16.3108 23.102 15.6335 22.3559 14.9563C21.9641 14.6002 21.5725 14.2443 21.1804 13.8887C21.1657 13.8752 21.1534 13.8547 21.12 13.8539C21.1362 13.8739 21.1468 13.8867 21.1573 13.8987C22.1704 15.0555 23.183 16.2123 24.1971 17.3684C24.2307 17.4069 24.2677 17.4429 24.3075 17.4749C24.6961 17.787 25.0855 18.0981 25.4744 18.4098C25.4935 18.425 25.5112 18.4415 25.5298 18.458C25.4744 18.5292 25.4246 18.5937 25.3721 18.6614C25.3507 18.6464 25.3316 18.6342 25.3134 18.6204C24.9155 18.317 24.5177 18.0132 24.1195 17.7098C24.0901 17.6873 24.0592 17.6658 24.0265 17.649C22.6496 16.9421 21.2724 16.2358 19.8955 15.5298C19.8793 15.5213 19.8621 15.5148 19.8454 15.5076C19.8589 15.5283 19.8753 15.5406 19.8925 15.5521C21.1701 16.406 22.4484 17.2599 23.7265 18.1134C23.7689 18.1414 23.8138 18.1659 23.8604 18.1863C24.3131 18.3845 24.7656 18.5814 25.2177 18.7786C25.2411 18.7886 25.2629 18.7999 25.2855 18.8109C25.2509 18.8941 25.219 18.9718 25.1863 19.0518C25.1603 19.0418 25.139 19.0338 25.1176 19.0253C24.7724 18.8843 24.4277 18.7426 24.0817 18.6027C23.8629 18.514 23.646 18.4258 23.4119 18.379C22.7249 18.2421 22.0406 18.0919 21.3553 17.9469C20.697 17.8075 20.0387 17.6678 19.3807 17.5283C19.2617 17.5031 19.1427 17.4789 19.0242 17.4544C19.0504 17.4721 19.0784 17.4831 19.1066 17.4926C20.4887 17.9574 21.8711 18.4225 23.2532 18.8868C23.3584 18.9223 23.4632 18.9603 23.5709 18.9855C23.6744 19.0093 23.7812 19.0178 23.8864 19.033C24.2869 19.0908 24.687 19.149 25.0875 19.2072C25.1068 19.2102 25.1262 19.2175 25.1454 19.223C25.1346 19.3097 25.1245 19.3904 25.1137 19.4771C25.0826 19.4746 25.0553 19.4739 25.0281 19.4706C24.8949 19.4541 24.7621 19.4364 24.6289 19.4204C24.3264 19.3827 24.0236 19.3457 23.7206 19.3092C23.6379 19.2992 23.555 19.2822 23.4725 19.2852C23.2392 19.2932 23.0059 19.3092 22.7725 19.3232C22.3341 19.3492 21.8959 19.3754 21.4572 19.4019C21.1436 19.4209 20.8293 19.4389 20.5152 19.4571C20.0652 19.4829 19.615 19.5076 19.1648 19.5338C19.0217 19.5421 18.8792 19.5518 18.7361 19.5611C18.7658 19.5701 18.7953 19.5713 18.8247 19.5728C19.0877 19.5878 19.3513 19.6028 19.6145 19.6183C19.9838 19.6398 20.3531 19.6623 20.7223 19.6838C20.9211 19.6958 21.1195 19.7055 21.3183 19.7175C21.6785 19.7388 22.0384 19.7605 22.3983 19.7823C22.7055 19.8002 23.0122 19.8192 23.3194 19.8357C23.4046 19.8405 23.4907 19.8422 23.5756 19.835C23.7088 19.8232 23.8415 19.8022 23.9748 19.7855C24.3166 19.7435 24.6583 19.702 25.0004 19.6603C25.0384 19.6558 25.0764 19.6536 25.1147 19.6503C25.1257 19.7408 25.1348 19.8222 25.1451 19.9105C25.0632 19.9222 24.9839 19.934 24.9044 19.9459C24.5246 20.0014 24.145 20.0559 23.7657 20.1126C23.6651 20.1281 23.5623 20.1386 23.4666 20.1704C22.02 20.6542 20.5741 21.141 19.1285 21.6271C19.1037 21.6353 19.0801 21.6458 19.0558 21.6556C19.0698 21.6626 19.0811 21.6623 19.0919 21.6603C19.4492 21.5848 19.8066 21.5094 20.1639 21.4339C21.252 21.2032 22.3402 20.9738 23.4279 20.7427C23.5319 20.7204 23.6381 20.7022 23.7363 20.6634C24.199 20.479 24.6593 20.2886 25.1206 20.1004C25.1414 20.0921 25.1628 20.0854 25.1871 20.0771C25.2207 20.1591 25.2523 20.2363 25.2852 20.3171C25.2595 20.3296 25.2364 20.3408 25.2136 20.3508C24.7587 20.549 24.3043 20.7469 23.8494 20.9456C23.8114 20.9623 23.7741 20.9821 23.7397 21.0051C22.4617 21.8585 21.1836 22.7127 19.9058 23.5666C19.8876 23.5786 19.8702 23.5921 19.8523 23.6051C19.8923 23.5989 19.9269 23.5819 19.961 23.5641C21.3112 22.8716 22.6611 22.1791 24.0111 21.4861C24.0479 21.4674 24.0837 21.4446 24.1168 21.4194C24.515 21.116 24.9128 20.8124 25.3107 20.5087C25.3304 20.4935 25.3507 20.4802 25.3721 20.4653C25.427 20.5372 25.4771 20.6035 25.5291 20.6712C25.509 20.6884 25.4935 20.7024 25.4773 20.7154C25.2268 20.9166 24.9748 21.1163 24.7248 21.3177C24.4787 21.5166 24.2172 21.6973 24.0236 21.9555C24.0121 21.9705 23.9986 21.9837 23.9863 21.9979C23.0427 23.0755 22.0993 24.1531 21.1551 25.2313C21.1404 25.2477 21.1274 25.2657 21.1132 25.283C21.1429 25.2725 21.1647 25.2537 21.186 25.2345C22.3198 24.2041 23.4539 23.174 24.5877 22.1434C24.6218 22.1121 24.6537 22.0774 24.6824 22.0407C24.9886 21.6451 25.2941 21.2482 25.6003 20.8519C25.6155 20.8321 25.6317 20.8129 25.6486 20.7919C25.7183 20.8476 25.7828 20.8998 25.8515 20.9543C25.8346 20.9778 25.8201 20.9986 25.8049 21.0191C25.5083 21.4224 25.2111 21.8258 24.915 22.2296C24.8919 22.2613 24.8701 22.2953 24.8524 22.3306C24.1603 23.7288 23.4688 25.1268 22.7774 26.5253C22.7679 26.545 22.76 26.5655 22.7514 26.5858C22.7723 26.57 22.7858 26.551 22.798 26.5318C23.6354 25.2323 24.4728 23.9327 25.3093 22.6325C25.3382 22.5875 25.3635 22.5392 25.3844 22.49C25.5779 22.0312 25.7703 21.5723 25.9631 21.1138C25.9737 21.0888 25.9855 21.065 25.9965 21.0403C26.0812 21.077 26.1562 21.1095 26.2333 21.1425C26.221 21.1752 26.2119 21.202 26.2019 21.2282C26.0196 21.6911 25.8368 22.1541 25.6547 22.6175C25.6417 22.6502 25.6292 22.6837 25.6223 22.7179C25.52 23.2152 25.4187 23.7128 25.3174 24.2106C25.1145 25.206 24.9113 26.2009 24.7089 27.1963C24.6966 27.2555 24.6858 27.3152 24.6748 27.3742C24.6942 27.3537 24.704 27.3302 24.7116 27.3065C25.1564 25.9345 25.6022 24.5625 26.0453 23.1898C26.0974 23.0293 26.1648 22.8731 26.182 22.7024C26.1884 22.6345 26.2007 22.567 26.2102 22.4995C26.2583 22.1546 26.3066 21.8098 26.3552 21.4649C26.3685 21.3724 26.3822 21.28 26.3964 21.1835C26.4848 21.195 26.5657 21.205 26.6511 21.2162C26.6477 21.2545 26.6462 21.2875 26.6425 21.3197C26.6263 21.4549 26.6094 21.5908 26.5935 21.7263C26.5576 22.0299 26.5206 22.3336 26.4862 22.6377C26.4757 22.7307 26.462 22.8249 26.4654 22.9184C26.4767 23.2125 26.4951 23.5061 26.5115 23.8C26.5206 23.979 26.5309 24.1576 26.5412 24.3363C26.563 24.7242 26.5856 25.112 26.6072 25.5002C26.618 25.6881 26.6278 25.8763 26.6381 26.0644C26.6607 26.464 26.6828 26.8634 26.7056 27.2633C26.7142 27.4137 26.724 27.5634 26.7333 27.7133C26.7412 27.6829 26.7434 27.6524 26.7453 27.6219C26.7598 27.3562 26.7741 27.0903 26.7893 26.8249C26.8113 26.4323 26.8337 26.0392 26.8558 25.6468C26.871 25.3814 26.8852 25.1155 26.9002 24.8499C26.9225 24.457 26.9443 24.0642 26.9669 23.6721C26.9784 23.4696 26.9924 23.2675 27.0015 23.0653C27.0064 22.9691 27.0076 22.8721 27.0015 22.7762C26.9959 22.6799 26.9787 22.5845 26.9671 22.4888C26.9213 22.1009 26.8756 21.713 26.83 21.3249C26.8256 21.2887 26.8241 21.2525 26.8212 21.2157C26.9105 21.2045 26.9902 21.1947 27.0739 21.184C27.08 21.2177 27.0862 21.2475 27.0903 21.277C27.1019 21.3587 27.1122 21.4404 27.1239 21.5219C27.1735 21.876 27.2238 22.2299 27.2734 22.584C27.2923 22.7192 27.3126 22.8531 27.3573 22.9833C27.4343 23.2077 27.5052 23.4344 27.5778 23.6601C27.9756 24.8844 28.3721 26.1089 28.7693 27.3335C28.7749 27.351 28.7825 27.3685 28.7892 27.3857C28.7848 27.3082 28.7703 27.2348 28.7553 27.1618C28.6042 26.4221 28.4533 25.6828 28.3024 24.9431C28.1657 24.2721 28.0305 23.6021 27.8926 22.9318C27.8688 22.8169 27.8514 22.7009 27.807 22.5902C27.6242 22.1324 27.4451 21.6733 27.2648 21.2142C27.2559 21.1907 27.2473 21.1672 27.2383 21.1415C27.3205 21.1068 27.3965 21.075 27.475 21.0418C27.4868 21.067 27.4976 21.088 27.5062 21.1093C27.7008 21.5726 27.8951 22.0357 28.0904 22.4988C28.1083 22.5417 28.1301 22.5837 28.1554 22.623C28.9285 23.8243 29.7026 25.0253 30.4765 26.2266C30.5582 26.3536 30.6401 26.4803 30.7223 26.607C30.7209 26.5843 30.713 26.5653 30.7039 26.547C30.0098 25.142 29.3152 23.7376 28.6201 22.3336C28.6037 22.3003 28.5841 22.2676 28.5617 22.2376C28.2612 21.8283 27.9606 21.4194 27.6598 21.0103C27.6461 20.9921 27.6348 20.9728 27.6218 20.9531C27.6914 20.8978 27.7565 20.8461 27.8237 20.7926C27.8409 20.8144 27.8556 20.8321 27.8696 20.8504C28.179 21.2505 28.4871 21.6506 28.7963 22.0504C28.8206 22.0814 28.8476 22.1111 28.8765 22.1379C29.5701 22.7682 30.264 23.3987 30.9579 24.0287C31.4035 24.433 31.8485 24.8379 32.2941 25.242C32.3088 25.2557 32.3218 25.2745 32.3564 25.279C32.3365 25.2555 32.3248 25.2412 32.3125 25.2273C31.3011 24.0724 30.29 22.9176 29.2777 21.7628C29.2411 21.721 29.1999 21.6823 29.1562 21.6473C28.77 21.3364 28.3821 21.027 27.9949 20.7167C27.9775 20.7024 27.9601 20.6872 27.9412 20.6712C27.9952 20.6015 28.0465 20.5352 28.1005 20.4653C28.123 20.4817 28.1434 20.4962 28.1638 20.5117C28.4525 20.7319 28.7445 20.9476 29.0289 21.1737C29.274 21.3689 29.537 21.5304 29.8155 21.6716C31.0627 22.3056 32.3059 22.9471 33.5511 23.5854C33.5724 23.5964 33.5945 23.6059 33.6163 23.6158C33.6001 23.5904 33.5793 23.5759 33.5584 23.5616C32.2823 22.7089 31.0065 21.8565 29.7299 21.0043C29.6972 20.9823 29.6624 20.9633 29.6266 20.9476C29.1717 20.7489 28.717 20.551 28.2626 20.353C28.2371 20.3421 28.2126 20.3298 28.1858 20.3171C28.2199 20.2353 28.2518 20.1579 28.2852 20.0769C28.3107 20.0861 28.3323 20.0931 28.3532 20.1016C28.8144 20.2898 29.2755 20.4782 29.737 20.6659C29.7733 20.6807 29.8111 20.6937 29.8491 20.7017C30.4846 20.8366 31.1206 20.9703 31.756 21.1048C32.5657 21.2762 33.3754 21.4479 34.1848 21.6191C34.2611 21.6353 34.3377 21.6508 34.4145 21.6663C34.3885 21.6436 34.359 21.6331 34.3291 21.6233C32.9777 21.1687 31.6262 20.7137 30.2743 20.2606C30.1323 20.2128 29.9931 20.1539 29.8427 20.1324C29.4058 20.0709 28.9688 20.0057 28.5323 19.9414C28.4643 19.9315 28.3964 19.9202 28.3252 19.9092C28.3367 19.8192 28.347 19.7365 28.3576 19.6513C28.3738 19.6521 28.3853 19.6518 28.3964 19.6533Z" fill="url(#paint10_radial_104_27)"/>
</g>
<defs>
<linearGradient id="paint0_linear_104_27" x1="109.415" y1="13.6051" x2="109.415" y2="30.3949" gradientUnits="userSpaceOnUse">
<stop stop-color="#F61EBE"/>
<stop offset="1" stop-color="#9C0072"/>
</linearGradient>
<linearGradient id="paint1_linear_104_27" x1="109.415" y1="13.6051" x2="109.415" y2="30.3949" gradientUnits="userSpaceOnUse">
<stop stop-color="#A5037A"/>
<stop offset="1" stop-color="#F31DBC"/>
</linearGradient>
<linearGradient id="paint2_linear_104_27" x1="10.3492" y1="1.64963" x2="10.3492" y2="44.0147" gradientUnits="userSpaceOnUse">
<stop stop-color="#FFA800"/>
<stop offset="1" stop-color="#FFCE4F"/>
</linearGradient>
<linearGradient id="paint3_linear_104_27" x1="87.1725" y1="13.0556" x2="98.546" y2="14.1231" gradientUnits="userSpaceOnUse">
<stop stop-color="white"/>
<stop offset="1" stop-color="#ECECEC"/>
</linearGradient>
<linearGradient id="paint4_linear_104_27" x1="74.8591" y1="13.0556" x2="84.1689" y2="13.7687" gradientUnits="userSpaceOnUse">
<stop stop-color="white"/>
<stop offset="1" stop-color="#ECECEC"/>
</linearGradient>
<linearGradient id="paint5_linear_104_27" x1="60.4652" y1="13.0556" x2="71.8388" y2="14.1231" gradientUnits="userSpaceOnUse">
<stop stop-color="white"/>
<stop offset="1" stop-color="#ECECEC"/>
</linearGradient>
<linearGradient id="paint6_linear_104_27" x1="46.1568" y1="13.0556" x2="57.5303" y2="14.1231" gradientUnits="userSpaceOnUse">
<stop stop-color="white"/>
<stop offset="1" stop-color="#ECECEC"/>
</linearGradient>
<linearGradient id="paint7_linear_104_27" x1="55.624" y1="5.20863" x2="47.2568" y2="34.0408" gradientUnits="userSpaceOnUse">
<stop stop-color="#DDFF0B"/>
<stop offset="1" stop-color="#ABE700"/>
</linearGradient>
<linearGradient id="paint8_linear_104_27" x1="27.4581" y1="1.64963" x2="27.4581" y2="44.0147" gradientUnits="userSpaceOnUse">
<stop stop-color="white"/>
<stop offset="1" stop-color="#EAEAEA"/>
</linearGradient>
<linearGradient id="paint9_linear_104_27" x1="26.6435" y1="13.0556" x2="26.6435" y2="27.7204" gradientUnits="userSpaceOnUse">
<stop stop-color="white"/>
<stop offset="1" stop-color="#EEEEEE"/>
</linearGradient>
<radialGradient id="paint10_radial_104_27" cx="0" cy="0" r="1" gradientUnits="userSpaceOnUse" gradientTransform="translate(26.7361 19.5662) rotate(90) scale(8.14713 8)">
<stop offset="0.367725" stop-color="#00B3FF"/>
<stop offset="0.752725" stop-color="#0041A3"/>
</radialGradient>
<clipPath id="clip0_104_27">
<rect width="122" height="44" fill="white"/>
</clipPath>
</defs>
</svg>
